<svg width="133" height="120" viewBox="0 0 133 120" fill="none" xmlns="http://www.w3.org/2000/svg">
<mask id="mask0_1212_5480" style="mask-type:luminance" maskUnits="userSpaceOnUse" x="0" y="0" width="133" height="120">
<path d="M133 0H0V120H133V0Z" fill="white"/>
</mask>
<g mask="url(#mask0_1212_5480)">
<mask id="mask1_1212_5480" style="mask-type:luminance" maskUnits="userSpaceOnUse" x="-37" y="-18" width="579" height="646">
<path d="M-36.0898 -17.8152H541.859V627.059H-36.0898V-17.8152Z" fill="white"/>
</mask>
<g mask="url(#mask1_1212_5480)">
<g opacity="0.5">
<path d="M18.6211 59.6883L81.1377 23.5576L18.6211 59.6883Z" fill="white"/>
<path d="M18.6211 59.6883L81.1377 23.5576" stroke="#E7EEEB" stroke-width="20" stroke-linecap="round"/>
</g>
<g opacity="0.5">
<path d="M33.4902 83.3858L96.0069 47.2551L33.4902 83.3858Z" fill="white"/>
<path d="M33.4902 83.3858L96.0069 47.2551" stroke="#E7EEEB" stroke-width="20" stroke-linecap="round"/>
</g>
<g opacity="0.5">
<path d="M112.021 38.1758L116.894 35.3228L112.021 38.1758Z" fill="white"/>
<path d="M112.021 38.1758L116.894 35.3228" stroke="#E7EEEB" stroke-width="20" stroke-linecap="round"/>
</g>
<g opacity="0.5">
<path d="M55.5469 102.882L103.026 74.9866L55.5469 102.882Z" fill="white"/>
<path d="M55.5469 102.882L103.026 74.9866" stroke="#E7EEEB" stroke-width="20" stroke-linecap="round"/>
</g>
<path d="M114.775 77.2785C115.536 77.3526 116.096 78.0337 116.024 78.7986C115.952 79.5634 115.275 80.1242 114.513 80.0501C113.751 79.976 113.192 79.2949 113.264 78.5301C113.336 77.7653 114.013 77.2044 114.775 77.2785Z" stroke="#3D745F" stroke-width="4.28355"/>
<path d="M34.2169 106.394C35.4695 106.516 36.3902 107.636 36.2715 108.894C36.1528 110.151 35.0394 111.074 33.7868 110.952C32.5342 110.83 31.6135 109.71 31.7322 108.452C31.8509 107.194 32.9643 106.272 34.2169 106.394Z" stroke="#0C5137" stroke-width="7.044"/>
<path d="M65.297 12.1824C66.5496 12.3042 67.4703 13.4243 67.3516 14.682C67.2329 15.9397 66.1195 16.862 64.8669 16.7401C63.6143 16.6183 62.6936 15.4982 62.8123 14.2405C62.931 12.9828 64.0444 12.0606 65.297 12.1824Z" stroke="#0C5137" stroke-width="7.044"/>
<path d="M12.9841 42.0002C13.5584 42.0002 14.0248 42.4693 14.0248 43.0471C14.0248 43.6248 13.5584 44.0939 12.9841 44.0939C12.4097 44.0939 11.9434 43.6248 11.9434 43.0471C11.9434 42.4693 12.4097 42.0002 12.9841 42.0002Z" stroke="#3D745F" stroke-width="5.14888"/>
<path d="M93.8141 110.265C94.3885 110.265 94.8548 110.734 94.8548 111.311C94.8548 111.889 94.3885 112.358 93.8141 112.358C93.2398 112.358 92.7734 111.889 92.7734 111.311C92.7734 110.734 93.2398 110.265 93.8141 110.265Z" stroke="#3D745F" stroke-width="5.14888"/>
<path d="M106.086 11.9146L106.471 7.73074" stroke="#3D745F" stroke-width="3"/>
<path d="M104.27 9.64429L108.429 10.0314" stroke="#3D745F" stroke-width="3"/>
<path d="M17.627 80.4932L17.8198 76.296" stroke="#0C5137" stroke-width="3"/>
<path d="M15.707 78.3093L19.8797 78.5033" stroke="#0C5137" stroke-width="3"/>
<path d="M104.506 98.6462L104.376 94.4466" stroke="#0C5137" stroke-width="3"/>
<path d="M102.424 96.6179L106.599 96.4873" stroke="#0C5137" stroke-width="3"/>
</g>
<path d="M66.52 29.7949C83.0956 29.7949 96.5536 43.3321 96.5536 60.0051C96.5536 76.678 83.0956 90.2152 66.52 90.2152C49.9444 90.2152 36.4863 76.678 36.4863 60.0051C36.4863 43.3321 49.9444 29.7949 66.52 29.7949Z" fill="#5C8A79"/>
<path d="M66.4997 32.6523C81.5076 32.6523 93.6929 44.9092 93.6929 60.0052C93.6929 75.1013 81.5076 87.3581 66.4997 87.3581C51.4919 87.3581 39.3066 75.1013 39.3066 60.0052C39.3066 44.9092 51.4919 32.6523 66.4997 32.6523Z" fill="#0C5137"/>
<path d="M54.2207 61.0084L61.5725 68.2352L78.7823 50.9243" stroke="white" stroke-width="6"/>
</g>
</svg>
