<svg width="375" height="331" viewBox="0 0 375 331" fill="none" xmlns="http://www.w3.org/2000/svg">
<g clip-path="url(#clip0_33_567)">
<path d="M220.136 164.161C220.136 164.161 204.319 195.861 188.249 217.742C181.856 226.452 175.424 233.603 169.932 236.587C164.557 239.507 160.007 244.035 156.242 249.068C146.494 262.081 141.992 278.373 141.992 278.373L100.902 216.103C100.902 216.103 102.305 155.236 107.238 145.054C114.429 130.215 117.902 100.237 120.664 94.2688C122.714 89.8417 128.566 66.9712 129.126 65.2897C129.371 64.5665 131.317 63.456 133.847 63.4576C135.876 63.4576 139.322 65.4221 140.189 69.4603C144.584 89.8665 139.296 103.328 139.363 103.926C140.913 119.61 136.254 131.253 139.529 134.336C139.649 134.449 139.875 134.396 140.189 134.191C145.855 130.55 181.011 79.205 185.342 78.0961C189.905 76.9277 220.136 164.161 220.136 164.161Z" fill="#FFB27D"/>
<path d="M154.353 266.05C154.353 266.05 153.793 293.72 152.191 330.988H48.5565C72.2388 280.382 92.8348 237.789 92.8348 237.789C92.8348 237.789 151.849 239.594 154.353 266.05Z" fill="#F99746"/>
<path d="M256.07 56.8773L243.348 75.5623L230.862 93.8997C230.101 94.8198 229.22 95.1393 228.267 95.0482C225.27 94.7636 221.564 90.4341 218.674 88.0377L218.382 87.796C216.551 86.2705 215.397 84.0809 215.172 81.7057C214.948 79.3306 215.671 76.963 217.184 75.1204L236.268 52.0116L241.929 45.1583C243.452 43.3246 245.638 42.1694 248.009 41.9449C250.38 41.7204 252.743 42.4448 254.583 43.96L254.877 44.2017C256.706 45.7284 257.859 47.9183 258.082 50.2931C258.306 52.668 257.582 55.0349 256.07 56.8773Z" fill="#FFB27D"/>
<path d="M243.336 75.5623L230.851 93.8997C230.089 94.8199 229.209 95.1393 228.255 95.0483L236.257 52.0183C236.275 52.2533 237.635 71.5622 243.336 75.5623Z" fill="#EFA26F"/>
<path d="M188.25 217.742C181.856 226.452 175.424 233.603 169.932 236.587C164.557 239.507 160.007 244.035 156.242 249.068C151.912 247.045 146.975 244.674 142.151 242.323C136.275 239.464 136.049 231.106 141.805 228.009C141.861 227.98 141.916 227.948 141.97 227.917C147.363 224.827 152.888 213.912 152.888 213.912L188.25 217.742Z" fill="#EFA26F"/>
<path d="M128.841 66.2365L125.511 79.7015C125.511 79.7015 128.423 80.8931 130.291 79.968C132.16 79.0428 133.685 66.9613 128.841 66.2365Z" fill="#FFC197"/>
<path d="M224.584 40.8289H152.994C145.923 40.8289 140.191 46.5706 140.191 53.6535V211.281C140.191 218.363 145.923 224.105 152.994 224.105H224.584C231.655 224.105 237.387 218.363 237.387 211.281V53.6535C237.387 46.5706 231.655 40.8289 224.584 40.8289Z" fill="#0C5137"/>
<path d="M249.727 127.435L247.83 128.157L235.07 133.014C234.774 133.128 234.472 133.224 234.165 133.302C232.093 133.834 229.899 133.585 227.999 132.602C226.099 131.618 224.626 129.97 223.86 127.97L223.674 127.473C222.862 125.314 222.936 122.922 223.879 120.817C224.823 118.713 226.559 117.068 228.71 116.242L240.605 111.716L241.469 111.385L243.368 110.662C245.525 109.847 247.916 109.922 250.018 110.87C252.12 111.818 253.761 113.562 254.583 115.719L254.771 116.216C255.579 118.374 255.502 120.765 254.557 122.867C253.612 124.968 251.876 126.611 249.727 127.435Z" fill="#FFB27D"/>
<path d="M239.364 127.733C237.236 128.542 233.38 129.975 231.318 130.273C230.735 130.356 229.666 130.038 228.657 128.939C228.055 128.277 227.48 127.341 227.052 126.04C226.845 125.439 226.699 124.82 226.616 124.19C226.536 123.456 226.56 122.715 226.687 121.988C226.752 121.649 226.896 121.33 227.108 121.057C227.319 120.784 227.592 120.565 227.903 120.418C227.903 120.418 227.903 120.418 227.913 120.418C230.106 119.37 233.061 118.091 235.652 117.379C237.443 116.883 239.255 117.675 239.822 119.246L240.09 119.979L241.459 123.736C242.026 125.292 241.104 127.076 239.364 127.733Z" fill="#FFD3B6"/>
<path d="M239.364 127.733C237.236 128.542 233.38 129.975 231.318 130.273C230.735 130.356 229.666 130.038 228.657 128.939C228.551 128.688 228.452 128.425 228.359 128.142C228.15 127.542 228.004 126.922 227.923 126.291C227.843 125.558 227.866 124.817 227.993 124.09C228.058 123.751 228.203 123.433 228.414 123.16C228.626 122.888 228.899 122.669 229.21 122.521C229.21 122.521 229.21 122.521 229.22 122.521C231.413 121.472 234.367 120.194 236.959 119.481C237.486 119.322 238.042 119.285 238.585 119.371C239.128 119.457 239.646 119.664 240.098 119.978L241.468 123.734C242.026 125.292 241.104 127.076 239.364 127.733Z" fill="#FFC197"/>
<path d="M243.938 145.41L234.096 148.093C232.654 148.481 231.118 148.283 229.822 147.54C228.526 146.798 227.576 145.572 227.18 144.131L226.876 143.015C226.488 141.57 226.688 140.029 227.431 138.731C228.174 137.433 229.4 136.482 230.841 136.086L240.681 133.403C242.124 133.015 243.662 133.215 244.958 133.959C246.254 134.703 247.203 135.932 247.597 137.375L247.9 138.49C248.285 139.934 248.085 141.472 247.342 142.768C246.6 144.064 245.376 145.014 243.938 145.41Z" fill="#FFB27D"/>
<path d="M238.616 144.927C236.809 145.41 233.542 146.262 231.829 146.357C231.206 146.391 229.959 145.86 229.146 144.223C228.72 143.334 228.474 142.369 228.422 141.383C228.41 140.813 228.484 140.245 228.642 139.697C228.726 139.435 228.87 139.196 229.063 139.001C229.257 138.805 229.493 138.658 229.754 138.571H229.764C231.639 137.909 234.157 137.117 236.336 136.734C237.84 136.471 239.267 137.196 239.619 138.439L239.873 139.326L240.632 141.992C240.982 143.22 240.093 144.533 238.616 144.927Z" fill="#FFD3B6"/>
<path d="M238.616 144.927C236.809 145.41 233.542 146.262 231.829 146.357C231.206 146.391 229.959 145.86 229.146 144.223C229.03 143.779 228.962 143.322 228.946 142.863C228.934 142.293 229.008 141.724 229.166 141.176C229.25 140.914 229.394 140.675 229.588 140.48C229.781 140.284 230.018 140.136 230.279 140.049C232.154 139.387 234.674 138.593 236.852 138.214C238.097 137.996 239.292 138.456 239.865 139.324L240.623 141.991C240.982 143.22 240.093 144.533 238.616 144.927Z" fill="#FFC197"/>
<path d="M82.7466 258.782C82.7466 258.782 102.999 278.214 116.652 285.716L126.99 278.371V289.206C126.99 289.206 147.312 292.808 153.732 289.206V259.66L96.6348 230.985L82.7466 258.782Z" fill="#ED7D2B"/>
<path d="M158.046 286.855C150.18 288.471 133.227 282.282 133.227 282.282L135.957 255.825L116.791 277.802C107.043 274.161 91.7939 264.684 82.735 258.782C78.2246 255.843 75.2474 253.793 75.2474 253.793C88.0319 233.185 100.891 213.907 100.891 213.907C104.666 221.472 113.599 228.039 123.284 233.294C139.378 242.026 157.544 247.126 157.544 247.126C157.549 262.854 158.046 286.855 158.046 286.855Z" fill="#F5F5DC"/>
<path d="M249.416 108.55L249.205 108.623L236.305 111.933C230.633 113.394 224.766 110.319 223.269 105.102L222.502 102.445C221.063 97.4348 224.154 92.1968 229.427 90.4987L233.686 89.4031L242.327 87.1805C247.999 85.7208 253.864 88.7957 255.361 94.0123L256.129 96.6851C257.547 101.617 254.556 106.779 249.416 108.55Z" fill="#FFB27D"/>
<path d="M243.513 104.942L237.235 107.772H237.195C236.946 107.842 236.693 107.897 236.437 107.937C236.333 107.954 236.225 107.966 236.12 107.977C236.076 107.981 236.031 107.981 235.987 107.977C235.824 107.972 235.664 107.926 235.523 107.843C235.381 107.761 235.262 107.645 235.177 107.505C235.091 107.365 235.041 107.207 235.031 107.043C235.022 106.879 235.053 106.716 235.122 106.567C235.736 105.234 235.862 103.727 235.477 102.31L235.327 101.763C235.328 101.757 235.328 101.752 235.327 101.746L234.841 99.962C234.471 98.5915 233.675 97.3744 232.569 96.4865C232.44 96.3822 232.308 96.2829 232.173 96.1902C230.933 95.3296 231.249 93.3767 232.7 92.9795L232.739 92.968L239.617 91.9253C241.317 91.4636 242.955 92.7743 243.417 94.4773L243.969 96.508L245.145 100.837C245.608 102.552 245.205 104.48 243.513 104.942Z" fill="#FFD3B6"/>
<path d="M243.513 104.942L237.235 107.772H237.195C237.048 107.8 236.589 107.878 235.987 107.971C235.824 107.965 235.664 107.919 235.523 107.837C235.381 107.754 235.262 107.638 235.177 107.498C235.091 107.359 235.041 107.2 235.031 107.036C235.022 106.873 235.053 106.709 235.122 106.56C235.736 105.228 235.862 103.72 235.477 102.304L235.327 101.756C235.328 101.751 235.328 101.745 235.327 101.739L234.841 99.962C234.471 98.5915 233.675 97.3744 232.569 96.4865C232.805 96.141 233.157 95.8915 233.56 95.7831L233.6 95.7715L240.478 94.7306C241.91 94.34 243.295 95.2088 243.976 96.508L245.152 100.837C245.608 102.552 245.205 104.48 243.513 104.942Z" fill="#FFC197"/>
<path d="M140.189 175.761C140.189 175.761 137.381 151.153 134.78 146.355C132.18 141.557 129.989 131.945 133.98 124.805C137.972 117.665 139.355 103.934 139.355 103.934C140.905 119.618 136.246 131.261 139.52 134.345C139.641 134.457 139.867 134.404 140.181 134.199L140.189 175.761Z" fill="#EFA26F"/>
<path d="M336.995 331H260.985C257.34 328.552 238.411 315.618 230.585 305.976C228.933 303.932 222.854 286.323 218.193 272.026C215.281 263.089 212.907 255.453 212.515 253.7C212.376 253.089 212.284 251.879 212.227 250.241V250.224C212.029 244.377 212.3 233.102 212.579 224.145V224.104V223.986C212.593 223.592 212.604 223.205 212.617 222.828V222.814C212.617 222.776 212.617 222.736 212.617 222.698C212.669 221.143 212.718 219.676 212.764 218.342C212.882 215.009 212.981 212.502 213.022 211.521L213.039 211.064C213.159 210.996 216.816 209.041 221.703 212.568C222.882 213.42 223.973 215.479 224.967 218.165C225.603 219.88 226.2 221.849 226.755 223.925C228.89 231.907 230.421 241.45 231.239 244.005C232.561 248.142 248.091 266.293 249.069 267.421C249.084 267.441 249.101 267.46 249.116 267.478V238.793L237.385 207.348L232.569 194.439L230.149 187.952C227.586 183.62 225.306 179.127 223.322 174.502C221.959 171.287 220.71 167.837 219.937 164.557C219.751 163.775 219.594 163.003 219.469 162.24C219.011 159.467 218.973 156.896 219.616 154.802C220.751 151.073 223.309 150.372 225.273 150.448C225.476 150.448 225.673 150.473 225.863 150.494C226.054 150.517 226.242 150.553 226.428 150.603C226.77 150.694 227.099 150.831 227.404 151.01C227.913 151.309 228.349 151.717 228.68 152.205C228.68 152.205 230.332 154.375 232.564 157.291C234.028 159.211 235.738 161.453 237.38 163.615C240.305 167.466 243.021 171.062 243.767 172.112C247.804 177.803 258.672 196.351 258.672 196.351L271.393 196.885C273.409 196.97 275.327 197.774 276.801 199.153C281.325 203.385 291.077 212.542 292.274 213.904C292.274 214.351 299.852 218.002 305.707 221.252C309.896 223.024 317.851 229.307 317.851 229.307C319.503 230.765 320.755 232.216 321.392 233.61C324.119 239.556 331.518 291.273 335.055 316.84C336.2 325.059 336.937 330.575 336.995 331Z" fill="#FFB27D"/>
<path d="M258.677 196.357C258.677 196.357 270.462 215.628 272.021 216.495C273.581 217.363 279.648 218.579 280.342 216.495C281.036 214.412 258.677 196.357 258.677 196.357Z" fill="#EFA26F"/>
<path d="M317.915 229.366L317.856 229.313C317.856 229.313 309.901 223.024 305.712 221.259C300.336 218.28 293.509 214.953 292.427 214.083C293.675 215.512 302.451 225.462 305.83 226.207C308.795 226.862 315.531 228.708 317.915 229.366Z" fill="#EFA26F"/>
<path d="M249.117 267.47V238.793C249.117 238.793 255.918 250.188 256.438 256.439C256.958 262.69 253.613 272.805 249.117 267.47Z" fill="#EFA26F"/>
<path d="M224.442 162.238C223.451 160.53 221.666 157.438 221.053 155.701C220.888 155.204 220.903 154.231 221.504 153.187C221.949 152.439 222.559 151.804 223.289 151.332C223.677 151.056 224.098 150.829 224.541 150.655C225.055 150.467 225.597 150.367 226.144 150.358C226.419 150.37 226.688 150.449 226.927 150.588C227.165 150.727 227.367 150.922 227.513 151.156C228.693 152.879 230.187 155.224 231.203 157.347C231.905 158.814 231.683 160.507 230.659 161.25L230.18 161.601L227.731 163.392C226.719 164.141 225.252 163.635 224.442 162.238Z" fill="#FFD3B6"/>
<path d="M224.442 162.238C223.451 160.53 221.666 157.439 221.053 155.701C220.888 155.204 220.903 154.231 221.504 153.187C222.039 152.747 222.635 152.388 223.274 152.123C223.788 151.935 224.33 151.835 224.877 151.826C225.152 151.838 225.421 151.917 225.66 152.056C225.898 152.195 226.099 152.39 226.246 152.624C227.427 154.347 228.921 156.692 229.935 158.814C230.387 159.754 230.458 160.785 230.18 161.599L227.731 163.39C226.719 164.141 225.252 163.635 224.442 162.238Z" fill="#FFC197"/>
<path d="M290.82 60.3214H274.886C270.677 60.3214 267.265 63.7395 267.265 67.9559V81.1032C267.265 85.3197 270.677 88.7378 274.886 88.7378H290.82C295.029 88.7378 298.441 85.3197 298.441 81.1032V67.9559C298.441 63.7395 295.029 60.3214 290.82 60.3214Z" fill="#E7EEEB"/>
<path d="M274.574 74.2963C275.44 76.5819 282.863 82.5862 282.863 82.5862C282.863 82.5862 285.283 80.6168 287.524 78.4951C289.201 76.9261 290.769 75.2728 291.14 74.2963C292.019 72.024 291.084 68.7736 287.836 68.2225C284.588 67.6714 282.858 71.0592 282.858 71.0592C282.858 71.0592 281.113 67.6714 277.868 68.2225C277.346 68.3066 276.842 68.4837 276.381 68.7455C274.361 69.8758 273.852 72.4229 274.574 74.2963Z" fill="#F99746"/>
<path d="M34.5874 162.743H82.3203C84.1536 162.748 85.9102 163.48 87.2067 164.778C88.5031 166.076 89.234 167.836 89.2396 169.672V190.656C89.2348 192.343 88.5638 193.959 87.3732 195.152C86.1826 196.344 84.5692 197.016 82.8854 197.021H81.6578L83.9576 206.753L69.5193 197.021H34.1826C32.3517 197.014 30.5977 196.283 29.3029 194.986C28.008 193.689 27.2773 191.932 27.2699 190.098V170.079C27.2756 168.137 28.0481 166.275 29.419 164.9C30.7899 163.526 32.6478 162.75 34.5874 162.743Z" fill="#E7EEEB"/>
<path d="M33.307 177.969H83.087C83.4135 177.967 83.7262 177.837 83.9571 177.606C84.1879 177.374 84.3182 177.061 84.3195 176.734C84.3182 176.407 84.1879 176.094 83.9571 175.863C83.7262 175.631 83.4135 175.501 83.087 175.5H33.307C32.9804 175.5 32.6674 175.631 32.4364 175.862C32.2055 176.093 32.0753 176.407 32.0745 176.734C32.0753 177.061 32.2055 177.375 32.4364 177.606C32.6674 177.838 32.9804 177.968 33.307 177.969Z" fill="#E7EEEB"/>
<path d="M33.307 183.495H83.087C83.4136 183.494 83.7266 183.364 83.9575 183.132C84.1885 182.901 84.3186 182.587 84.3195 182.26C84.3182 181.933 84.1879 181.62 83.9571 181.389C83.7262 181.157 83.4135 181.027 83.087 181.026H33.307C32.9804 181.027 32.6674 181.157 32.4364 181.388C32.2055 181.62 32.0753 181.933 32.0745 182.26C32.0749 182.588 32.2049 182.901 32.4359 183.133C32.667 183.364 32.9802 183.494 33.307 183.495Z" fill="#E7EEEB"/>
<path d="M33.307 189.022H83.087C83.4135 189.021 83.7262 188.891 83.9571 188.659C84.1879 188.428 84.3182 188.115 84.3195 187.788C84.3186 187.461 84.1885 187.147 83.9575 186.916C83.7266 186.684 83.4136 186.554 83.087 186.553H33.307C32.9802 186.554 32.667 186.684 32.4359 186.915C32.2049 187.147 32.0749 187.461 32.0745 187.788C32.0753 188.115 32.2055 188.429 32.4364 188.66C32.6674 188.891 32.9804 189.022 33.307 189.022Z" fill="#E7EEEB"/>
<path d="M60.4225 169.384H81.5521C81.9409 169.383 82.3136 169.228 82.5886 168.953C82.8635 168.678 83.0184 168.304 83.0192 167.915C83.0179 167.525 82.8629 167.152 82.5881 166.877C82.3132 166.602 81.9408 166.446 81.5521 166.445H60.4225C60.0337 166.446 59.6613 166.602 59.3865 166.877C59.1116 167.152 58.9566 167.525 58.9553 167.915C58.9562 168.304 59.111 168.678 59.386 168.953C59.6609 169.228 60.0336 169.383 60.4225 169.384Z" fill="#E7EEEB"/>
<path d="M42.2651 169.386H54.9785C55.6191 169.386 56.1384 168.866 56.1384 168.224V167.609C56.1384 166.967 55.6191 166.447 54.9785 166.447H42.2651C41.6245 166.447 41.1052 166.967 41.1052 167.609V168.224C41.1052 168.866 41.6245 169.386 42.2651 169.386Z" fill="#E7EEEB"/>
<path d="M274.432 173.381L304.455 183.213L286.471 165.656L284.646 169.945L276.917 169.983L274.432 173.381Z" fill="#B4C9C1"/>
<path d="M304.455 183.213L281.154 165.459L256.26 159.762L304.455 183.213Z" fill="white"/>
<path d="M286.471 165.656L304.455 183.213L292.469 158.615L286.471 165.656Z" fill="white"/>
<path d="M97.3948 61.3426L69.3326 65.3526L87.9543 52.6389L88.9026 56.7152L95.7261 57.9531L97.3948 61.3426Z" fill="#B4C9C1"/>
<path d="M69.3326 65.3527L92.6845 53.2927L115.574 52.1392L69.3326 65.3527Z" fill="white"/>
<path d="M87.9543 52.639L69.3326 65.3527L83.7479 45.4811L87.9543 52.639Z" fill="white"/>
<path d="M298.806 319.225L276.101 331H260.985C257.34 328.552 238.411 315.618 230.585 305.976C228.933 303.933 222.854 286.323 218.193 272.026C218.813 273.924 231.834 301.703 235.541 304.861C239.249 308.019 258.715 326.402 264.091 326.21C269.299 326.032 297.022 319.64 298.74 319.245L298.806 319.225Z" fill="#EFA26F"/>
<path d="M344.492 331H262.634C266.739 329.386 282.447 323.375 298.729 319.25L298.806 319.231C312.79 315.688 327.186 313.54 335.004 316.762L335.06 316.846L344.492 331Z" fill="#E7EEEB"/>
<path d="M212.617 222.692C213.995 222.185 215.933 221.851 216.875 223.428C218.342 225.881 212.893 247.522 212.213 250.239L212.617 222.692Z" fill="#EFA26F"/>
<path d="M213.037 211.056L212.569 224.145C212.569 224.145 215.317 224.593 216.878 223.425C218.44 222.257 217.614 210.902 213.037 211.056Z" fill="#FFC197"/>
<path d="M158.046 286.855C150.18 288.471 133.227 282.282 133.227 282.282L135.957 255.825L116.791 277.802C107.043 274.161 91.7939 264.684 82.735 258.782C105.951 256.247 123.284 233.295 123.284 233.295C139.378 242.027 157.544 247.128 157.544 247.128C157.549 262.854 158.046 286.855 158.046 286.855Z" fill="#E7EEEB"/>
<path d="M104.07 262.824C104.075 262.192 104.268 261.576 104.623 261.054C104.979 260.533 105.481 260.128 106.065 259.892C106.65 259.655 107.292 259.598 107.909 259.727C108.527 259.856 109.092 260.166 109.534 260.616C109.976 261.067 110.274 261.639 110.391 262.26C110.508 262.881 110.439 263.522 110.193 264.104C109.946 264.685 109.533 265.18 109.005 265.526C108.477 265.872 107.859 266.054 107.228 266.048C106.81 266.044 106.396 265.957 106.01 265.793C105.625 265.629 105.276 265.391 104.982 265.091C104.689 264.792 104.457 264.438 104.301 264.049C104.144 263.659 104.066 263.243 104.07 262.824Z" fill="#F99746"/>
<path d="M232.569 54.8665V208.839C232.569 214.063 228.333 218.336 223.152 218.336H154.418C149.243 218.336 145 214.063 145 208.839V54.8665C145 49.6433 149.235 45.3701 154.418 45.3701H223.158C228.333 45.3701 232.569 49.6499 232.569 54.8665Z" fill="#E7EEEB" fill-opacity="0.1"/>
<path d="M223.158 45.3701L155.269 218.336H154.418C149.243 218.336 145 214.063 145 208.839V54.8665C145 49.6433 149.235 45.3701 154.418 45.3701H223.158Z" fill="#E7EEEB" fill-opacity="0.1"/>
<path d="M215.663 68.8724H162.043C159.163 68.9075 156.414 70.0506 154.391 72.0539C152.367 74.0573 151.232 76.7596 151.232 79.5753C151.232 82.391 152.367 85.0933 154.391 87.0966C156.414 89.1 159.163 90.243 162.043 90.2781H215.663C218.542 90.243 221.292 89.1 223.315 87.0966C225.339 85.0933 226.474 82.391 226.474 79.5753C226.474 76.7596 225.339 74.0573 223.315 72.0539C221.292 70.0506 218.542 68.9075 215.663 68.8724Z" fill="#FFC75A"/>
<path d="M215.663 103.057H162.043C159.163 103.092 156.414 104.235 154.391 106.238C152.367 108.242 151.232 110.944 151.232 113.76C151.232 116.575 152.367 119.278 154.391 121.281C156.414 123.284 159.163 124.427 162.043 124.462H215.663C218.542 124.427 221.292 123.284 223.315 121.281C225.339 119.278 226.474 116.575 226.474 113.76C226.474 110.944 225.339 108.242 223.315 106.238C221.292 104.235 218.542 103.092 215.663 103.057Z" fill="#FFC75A"/>
<path d="M171.18 113.767C171.181 115.924 170.347 118.001 168.846 119.582L168.785 119.645L168.718 119.713C167.442 121.002 165.784 121.868 163.978 122.186C162.172 122.505 160.309 122.262 158.652 121.49C157.585 120.99 156.632 120.285 155.85 119.417C155.669 119.216 155.499 119.006 155.34 118.789C154.529 117.696 153.994 116.43 153.779 115.096C153.563 113.761 153.674 112.396 154.102 111.111C154.529 109.827 155.262 108.66 156.239 107.705C157.216 106.75 158.411 106.035 159.725 105.618C161.039 105.201 162.436 105.094 163.8 105.305C165.165 105.517 166.459 106.041 167.576 106.835C168.694 107.629 169.604 108.671 170.231 109.874C170.858 111.078 171.185 112.41 171.185 113.76L171.18 113.767Z" fill="#FFFFFD"/>
<path d="M160.646 117.754L160.464 118.086C160.422 118.165 160.373 118.253 160.32 118.357C160.133 118.704 159.88 119.178 159.591 119.721L159.515 119.864C159.246 120.362 158.951 120.921 158.652 121.485C157.585 120.985 156.632 120.28 155.85 119.412C155.669 119.211 155.499 119.001 155.34 118.784C155.446 118.682 155.566 118.593 155.695 118.52C156.988 117.804 159.433 117.741 160.315 117.743C160.52 117.754 160.646 117.754 160.646 117.754Z" fill="#F43E31"/>
<path d="M155.85 119.416C156.261 118.832 156.771 118.429 157.398 118.344C158.088 118.251 159.183 118.168 160.305 118.1L160.464 118.09C162.058 117.995 163.66 117.924 164.17 117.914H164.34L164.379 117.924C164.517 117.959 164.975 118.07 164.795 117.988C166.598 118.301 167.879 118.934 168.79 119.65L168.724 119.718C167.447 121.007 165.789 121.873 163.983 122.191C162.177 122.51 160.314 122.267 158.657 121.495C157.588 120.994 156.633 120.286 155.85 119.416Z" fill="#F43E31"/>
<path d="M162.553 121.318C162.624 121.318 162.695 121.331 162.77 121.336C162.78 121.336 162.79 121.335 162.8 121.332C162.809 121.329 162.818 121.324 162.826 121.317C162.833 121.311 162.839 121.303 162.844 121.294C162.848 121.285 162.851 121.276 162.852 121.266C162.852 121.256 162.851 121.246 162.848 121.237C162.845 121.228 162.839 121.219 162.833 121.212C162.826 121.204 162.818 121.198 162.809 121.194C162.8 121.19 162.79 121.187 162.78 121.186C159.601 120.969 159.012 118.694 159.007 118.671C159.004 118.652 158.993 118.634 158.976 118.622C158.96 118.611 158.939 118.606 158.919 118.609C158.899 118.612 158.881 118.623 158.869 118.639C158.857 118.655 158.852 118.675 158.856 118.694C158.859 118.718 159.445 121.004 162.553 121.318Z" fill="#0D060E"/>
<path d="M164.36 117.824C166.447 118.11 167.877 118.821 168.846 119.58L168.785 119.643L168.718 119.711C167.781 118.979 166.399 118.294 164.388 118.01L164.248 117.992C164.228 117.989 164.209 117.98 164.195 117.966C164.181 117.952 164.172 117.933 164.17 117.914C164.169 117.906 164.169 117.898 164.17 117.89C164.172 117.879 164.176 117.867 164.182 117.857C164.188 117.846 164.196 117.837 164.206 117.83C164.216 117.823 164.227 117.818 164.239 117.815C164.251 117.811 164.263 117.811 164.275 117.812L164.36 117.824Z" fill="#0D060E"/>
<path d="M165.094 111.139L165.198 115.066C165.198 115.066 165.286 116.327 164.16 116.513L164.416 118.193C164.463 118.496 164.4 118.805 164.239 119.067C164.078 119.33 163.828 119.529 163.533 119.631C163.191 119.748 162.833 119.811 162.471 119.819C161.18 119.852 160.456 118.924 160.335 118.452C160.215 117.98 160.478 115.712 160.478 115.712L160.408 114.601L160.442 110.292L165.094 111.139Z" fill="#FC8759"/>
<path d="M161.511 115.508C161.511 115.508 161.642 117.618 164.347 117.753L164.158 116.513C164.158 116.513 162.418 116.902 161.511 115.508Z" fill="#FB554B"/>
<path d="M162.031 113.277C162.024 113.277 162.017 113.276 162.011 113.274C162.004 113.272 161.999 113.268 161.994 113.264C161.983 113.254 161.978 113.24 161.978 113.226C161.978 113.212 161.983 113.199 161.994 113.189C161.994 113.189 162.721 112.423 163.412 112.938C163.422 112.948 163.427 112.962 163.427 112.975C163.427 112.989 163.422 113.003 163.412 113.013C163.407 113.018 163.401 113.021 163.395 113.024C163.389 113.027 163.382 113.028 163.375 113.028C163.368 113.028 163.361 113.027 163.355 113.024C163.348 113.021 163.342 113.018 163.337 113.013C162.726 112.558 162.092 113.224 162.065 113.252C162.061 113.258 162.057 113.264 162.051 113.268C162.045 113.273 162.038 113.276 162.031 113.277Z" fill="#2D0F28"/>
<path d="M160.162 112.77L161.329 112.978L161.545 113.186C161.545 113.186 161.394 111.283 161.166 110.916C160.938 110.549 160.162 112.77 160.162 112.77Z" fill="#35282A"/>
<path d="M164.241 112.905C164.233 112.905 164.225 112.904 164.218 112.901C164.211 112.898 164.204 112.894 164.199 112.888C164.189 112.878 164.184 112.865 164.184 112.851C164.184 112.837 164.189 112.824 164.199 112.814C164.221 112.795 164.722 112.353 165.048 112.618C165.054 112.622 165.058 112.627 165.062 112.633C165.065 112.639 165.067 112.646 165.068 112.652C165.069 112.659 165.068 112.666 165.066 112.673C165.065 112.679 165.061 112.685 165.057 112.691C165.047 112.7 165.033 112.706 165.019 112.706C165.004 112.706 164.991 112.7 164.98 112.691C164.722 112.483 164.272 112.88 164.267 112.883C164.261 112.893 164.252 112.901 164.241 112.905Z" fill="#2D0F28"/>
<path d="M163.125 113.463C163.128 113.496 163.12 113.53 163.102 113.558C163.085 113.587 163.06 113.61 163.029 113.625C162.998 113.639 162.964 113.644 162.93 113.639C162.896 113.634 162.865 113.619 162.84 113.596C162.815 113.574 162.798 113.544 162.79 113.512C162.782 113.479 162.785 113.445 162.797 113.414C162.81 113.383 162.832 113.356 162.86 113.338C162.888 113.319 162.921 113.309 162.955 113.309C162.977 113.307 162.998 113.311 163.019 113.318C163.039 113.325 163.058 113.336 163.074 113.351C163.09 113.365 163.102 113.382 163.111 113.402C163.12 113.421 163.125 113.442 163.125 113.463Z" fill="#010103"/>
<path d="M164.836 113.269C164.837 113.29 164.834 113.311 164.827 113.331C164.82 113.351 164.809 113.369 164.794 113.385C164.78 113.4 164.762 113.412 164.742 113.421C164.722 113.43 164.701 113.434 164.68 113.435C164.654 113.444 164.627 113.447 164.601 113.443C164.574 113.44 164.549 113.43 164.526 113.415C164.504 113.401 164.486 113.381 164.473 113.358C164.46 113.335 164.453 113.309 164.453 113.283C164.452 113.257 164.458 113.231 164.469 113.207C164.481 113.183 164.498 113.162 164.519 113.147C164.541 113.131 164.565 113.12 164.592 113.115C164.618 113.11 164.645 113.112 164.671 113.119C164.713 113.12 164.752 113.136 164.782 113.164C164.813 113.191 164.832 113.228 164.836 113.269Z" fill="#010103"/>
<path d="M161.791 113.435C161.796 113.622 161.745 113.806 161.642 113.965C161.54 114.123 161.392 114.248 161.217 114.324C161.042 114.401 160.848 114.424 160.659 114.393C160.471 114.361 160.296 114.275 160.157 114.146C160.018 114.017 159.921 113.851 159.879 113.669C159.836 113.486 159.85 113.295 159.919 113.12C159.988 112.945 160.108 112.794 160.264 112.686C160.42 112.578 160.606 112.518 160.798 112.513C161.054 112.506 161.303 112.6 161.489 112.773C161.676 112.946 161.784 113.184 161.791 113.435Z" fill="#FC8759"/>
<path d="M160.662 113.996C160.574 113.996 160.489 113.968 160.419 113.917C160.349 113.865 160.298 113.793 160.274 113.711C160.244 113.633 160.241 113.547 160.267 113.468C160.292 113.389 160.345 113.32 160.415 113.274C160.49 113.224 160.579 113.197 160.67 113.197C160.761 113.197 160.85 113.224 160.925 113.274C160.888 113.176 160.816 113.094 160.723 113.044C160.586 112.988 160.432 112.982 160.291 113.028C160.285 113.03 160.277 113.03 160.271 113.027C160.265 113.024 160.26 113.019 160.257 113.013C160.255 113.006 160.256 112.999 160.259 112.993C160.262 112.987 160.267 112.982 160.274 112.98C160.428 112.927 160.597 112.933 160.747 112.998C160.811 113.033 160.867 113.08 160.911 113.137C160.955 113.195 160.987 113.26 161.003 113.33L161.029 113.422L160.959 113.357C160.891 113.295 160.805 113.256 160.713 113.247C160.621 113.238 160.528 113.258 160.449 113.305C160.391 113.347 160.348 113.407 160.326 113.475C160.305 113.543 160.306 113.615 160.33 113.682C160.35 113.755 160.394 113.82 160.455 113.865C160.517 113.911 160.593 113.934 160.67 113.932C160.674 113.931 160.677 113.932 160.681 113.933C160.684 113.934 160.687 113.936 160.69 113.938C160.692 113.94 160.695 113.943 160.696 113.946C160.698 113.95 160.699 113.953 160.699 113.956C160.699 113.964 160.696 113.971 160.691 113.976C160.686 113.981 160.679 113.984 160.672 113.985L160.662 113.996Z" fill="#FB554B"/>
<path d="M163.72 114.513C163.714 114.513 163.708 114.511 163.703 114.508C163.698 114.505 163.695 114.5 163.693 114.495C163.69 114.488 163.691 114.481 163.694 114.475C163.697 114.469 163.703 114.464 163.71 114.462L164.245 114.274L164.041 113.036C164.04 113.029 164.042 113.022 164.046 113.017C164.05 113.011 164.056 113.007 164.063 113.006C164.07 113.005 164.077 113.007 164.083 113.011C164.088 113.015 164.092 113.021 164.094 113.028L164.304 114.309L163.728 114.511L163.72 114.513Z" fill="#FB554B"/>
<path d="M163.319 115.035C163.336 115.035 164.382 114.981 164.382 114.981C164.382 114.981 164.262 115.408 163.873 115.428C163.484 115.448 163.319 115.035 163.319 115.035Z" fill="#FBFDFA"/>
<path d="M160.162 112.77C160.162 112.77 159.786 110.943 160.345 110.234C160.904 109.524 164.187 108.24 164.593 108.572C164.999 108.905 164.613 109.333 164.613 109.333C164.613 109.333 165.934 108.881 166.265 110.028C166.596 111.174 163.749 111.737 162.028 111.24C161.251 111.537 160.596 112.075 160.162 112.77Z" fill="#35282A"/>
<path d="M215.663 137.241H162.043C159.14 137.241 156.356 138.369 154.303 140.376C152.251 142.383 151.098 145.105 151.098 147.943C151.098 150.781 152.251 153.504 154.303 155.511C156.356 157.518 159.14 158.645 162.043 158.645H215.663C218.566 158.645 221.35 157.518 223.402 155.511C225.455 153.504 226.608 150.781 226.608 147.943C226.608 145.105 225.455 142.383 223.402 140.376C221.35 138.369 218.566 137.241 215.663 137.241Z" fill="#FFC75A"/>
<path d="M215.663 171.547H162.043C159.163 171.582 156.414 172.725 154.391 174.728C152.367 176.731 151.232 179.434 151.232 182.249C151.232 185.065 152.367 187.767 154.391 189.771C156.414 191.774 159.163 192.917 162.043 192.952H215.663C218.542 192.917 221.292 191.774 223.315 189.771C225.339 187.767 226.474 185.065 226.474 182.249C226.474 179.434 225.339 176.731 223.315 174.728C221.292 172.725 218.542 171.582 215.663 171.547Z" fill="#FFC75A"/>
<g opacity="0.3">
<g style="mix-blend-mode:multiply">
<path d="M220.767 74.8082H174.147V75.6787H220.767V74.8082Z" fill="#223749"/>
</g>
<g style="mix-blend-mode:multiply">
<path d="M220.767 77.6174H174.147V78.4879H220.767V77.6174Z" fill="#223749"/>
</g>
<path d="M220.767 80.4268H174.147V81.2973H220.767V80.4268Z" fill="#223749"/>
<path d="M220.767 83.236H174.147V84.1065H220.767V83.236Z" fill="#223749"/>
<g style="mix-blend-mode:multiply">
<path d="M220.767 108.993H174.147V109.863H220.767V108.993Z" fill="#223749"/>
</g>
<g style="mix-blend-mode:multiply">
<path d="M220.767 111.802H174.147V112.672H220.767V111.802Z" fill="#223749"/>
</g>
<g style="mix-blend-mode:multiply">
<path d="M220.767 114.611H174.147V115.481H220.767V114.611Z" fill="#223749"/>
</g>
<g style="mix-blend-mode:multiply">
<path d="M220.767 117.42H174.147V118.291H220.767V117.42Z" fill="#223749"/>
</g>
<g style="mix-blend-mode:multiply">
<path d="M220.767 143.175H174.147V144.046H220.767V143.175Z" fill="#223749"/>
</g>
<g style="mix-blend-mode:multiply">
<path d="M220.767 145.986H174.147V146.857H220.767V145.986Z" fill="#223749"/>
</g>
<g style="mix-blend-mode:multiply">
<path d="M220.767 148.795H174.147V149.666H220.767V148.795Z" fill="#223749"/>
</g>
<g style="mix-blend-mode:multiply">
<path d="M220.767 151.604H174.147V152.475H220.767V151.604Z" fill="#223749"/>
</g>
<g style="mix-blend-mode:multiply">
<path d="M220.767 177.482H174.147V178.353H220.767V177.482Z" fill="#223749"/>
</g>
<g style="mix-blend-mode:multiply">
<path d="M220.767 180.292H174.147V181.162H220.767V180.292Z" fill="#223749"/>
</g>
<g style="mix-blend-mode:multiply">
<path d="M220.767 183.101H174.147V183.971H220.767V183.101Z" fill="#223749"/>
</g>
<g style="mix-blend-mode:multiply">
<path d="M220.767 185.91H174.147V186.781H220.767V185.91Z" fill="#223749"/>
</g>
</g>
<path d="M170.732 147.845C170.732 149.921 169.96 151.926 168.561 153.487C167.162 155.049 165.23 156.06 163.125 156.332C162.744 156.381 162.361 156.406 161.977 156.406H161.909C161.559 156.402 161.21 156.38 160.864 156.337L160.588 156.299C158.937 156.04 157.396 155.324 156.147 154.236C154.899 153.147 153.995 151.732 153.543 150.157C153.092 148.583 153.111 146.914 153.598 145.35C154.086 143.785 155.021 142.39 156.294 141.329C157.567 140.268 159.124 139.586 160.781 139.363C162.438 139.14 164.126 139.386 165.645 140.071C167.164 140.756 168.45 141.853 169.351 143.23C170.253 144.608 170.732 146.209 170.732 147.845Z" fill="#FFFFFD"/>
<path d="M160.322 147.006C160.322 147.006 160.697 150.296 161.2 150.329C161.703 150.362 160.86 154.216 159.521 152.322C159.054 151.658 159.075 147.338 160.189 146.406C161.304 145.474 160.322 147.006 160.322 147.006Z" fill="#35282A"/>
<path d="M160.142 146.18C160.142 146.18 159.679 149.289 160.096 149.835C160.181 149.935 160.288 150.015 160.409 150.069C160.531 150.122 160.663 150.148 160.796 150.144L160.757 151.972L163.003 151.721L163.078 146.524C163.078 146.524 162.437 145.24 162.437 145.293C162.437 145.347 160.142 146.18 160.142 146.18Z" fill="#FCA085"/>
<path d="M160.831 148.774C160.831 148.774 160.843 148.774 160.845 148.759C160.846 148.754 160.846 148.749 160.844 148.745C160.842 148.74 160.839 148.736 160.835 148.734C160.741 148.706 160.685 148.548 160.665 148.496C160.793 148.408 160.881 148.275 160.91 148.124C160.935 147.961 160.911 147.793 160.842 147.642C160.842 147.632 160.828 147.631 160.821 147.642C160.818 147.646 160.817 147.651 160.817 147.656C160.817 147.66 160.818 147.665 160.821 147.669C160.885 147.81 160.906 147.966 160.884 148.119C160.87 148.191 160.842 148.259 160.801 148.32C160.759 148.381 160.705 148.433 160.643 148.473H160.631V148.49C160.631 148.5 160.696 148.731 160.821 148.77L160.831 148.774Z" fill="#FB554B"/>
<path d="M160.787 150.772L160.796 150.151C160.796 150.151 161.871 150.104 162.536 149.707C162.531 149.707 161.628 150.536 160.787 150.772Z" fill="#FB554B"/>
<path d="M162.311 147.744C162.317 147.744 162.322 147.743 162.327 147.741C162.332 147.739 162.336 147.736 162.34 147.732C162.348 147.724 162.352 147.714 162.352 147.704C162.352 147.693 162.348 147.683 162.34 147.676C162.34 147.676 161.831 147.142 161.341 147.509C161.337 147.513 161.333 147.517 161.33 147.521C161.327 147.526 161.326 147.531 161.325 147.536C161.324 147.541 161.324 147.547 161.326 147.552C161.327 147.557 161.329 147.562 161.333 147.566C161.341 147.573 161.351 147.577 161.362 147.577C161.372 147.577 161.383 147.573 161.39 147.566C161.814 147.234 162.262 147.702 162.281 147.722C162.284 147.728 162.288 147.733 162.293 147.736C162.299 147.74 162.305 147.743 162.311 147.744Z" fill="#F32527"/>
<path d="M160.641 147.637C160.653 147.637 160.664 147.632 160.672 147.624C160.675 147.62 160.678 147.616 160.681 147.611C160.683 147.606 160.684 147.601 160.684 147.596C160.684 147.591 160.683 147.585 160.681 147.581C160.678 147.576 160.675 147.571 160.672 147.568C160.656 147.554 160.3 147.247 160.067 147.436C160.058 147.443 160.053 147.453 160.052 147.464C160.051 147.474 160.055 147.485 160.062 147.493C160.069 147.501 160.079 147.506 160.09 147.507C160.1 147.508 160.111 147.505 160.119 147.498C160.298 147.352 160.614 147.624 160.617 147.627C160.624 147.633 160.632 147.637 160.641 147.637Z" fill="#F32527"/>
<path d="M161.496 147.953C161.496 147.982 161.507 148.011 161.528 148.032C161.549 148.053 161.578 148.065 161.608 148.066C161.638 148.066 161.667 148.054 161.688 148.033C161.71 148.013 161.722 147.984 161.722 147.955C161.722 147.925 161.71 147.897 161.688 147.876C161.667 147.855 161.638 147.843 161.608 147.843C161.578 147.844 161.55 147.856 161.53 147.876C161.509 147.897 161.497 147.924 161.496 147.953Z" fill="#010103"/>
<path d="M160.171 147.938C160.171 147.968 160.182 147.996 160.204 148.017C160.225 148.038 160.254 148.049 160.284 148.049C160.315 148.049 160.343 148.038 160.365 148.017C160.386 147.996 160.398 147.968 160.398 147.938C160.398 147.909 160.386 147.88 160.365 147.859C160.343 147.838 160.315 147.827 160.284 147.827C160.254 147.827 160.225 147.838 160.204 147.859C160.182 147.88 160.171 147.909 160.171 147.938Z" fill="#010103"/>
<path d="M161.384 148.958L160.583 149.043C160.621 149.125 160.682 149.194 160.759 149.243C160.836 149.292 160.926 149.317 161.018 149.317C161.311 149.285 161.384 148.958 161.384 148.958Z" fill="#FBFDFA"/>
<path d="M161.115 146.24L161.661 145.501C161.661 145.501 160.784 146.036 160.857 146.059C160.95 146.109 161.037 146.17 161.115 146.24Z" fill="#FC8759"/>
<path d="M162.751 145.89C162.751 145.89 162.595 147.053 159.756 147.284C159.756 147.284 159.097 145.567 161.158 144.994C163.219 144.421 163.407 145.968 163.366 145.953C163.326 145.938 162.751 145.89 162.751 145.89Z" fill="#35282A"/>
<path d="M162.323 146.539C162.323 146.539 162.777 147.303 163.022 147.853C163.022 147.853 162.143 152.708 164.055 152.435H164.394C166.093 152.414 164.914 148.835 164.885 146.935C164.867 145.745 163.39 144.539 162.43 145.263C161.47 145.988 162.323 146.539 162.323 146.539Z" fill="#35282A"/>
<path d="M162.605 148.446C162.604 148.569 162.639 148.69 162.708 148.793C162.776 148.896 162.874 148.977 162.99 149.026C163.105 149.074 163.233 149.088 163.356 149.066C163.48 149.043 163.594 148.986 163.684 148.9C163.774 148.814 163.836 148.704 163.862 148.584C163.888 148.464 163.877 148.339 163.831 148.225C163.784 148.111 163.704 148.012 163.601 147.943C163.497 147.873 163.375 147.835 163.249 147.833C163.166 147.832 163.083 147.847 163.005 147.877C162.928 147.907 162.857 147.952 162.797 148.009C162.737 148.066 162.689 148.134 162.656 148.209C162.624 148.284 162.606 148.365 162.605 148.446Z" fill="#FCA085"/>
<path d="M163.281 148.839C163.34 148.838 163.396 148.818 163.442 148.784C163.488 148.749 163.521 148.701 163.536 148.646C163.555 148.594 163.556 148.538 163.538 148.486C163.521 148.434 163.486 148.389 163.44 148.358C163.39 148.327 163.333 148.311 163.275 148.311C163.216 148.311 163.159 148.327 163.11 148.358C163.133 148.298 163.178 148.248 163.236 148.217C163.324 148.18 163.424 148.174 163.516 148.202C163.518 148.203 163.521 148.204 163.524 148.204C163.526 148.204 163.529 148.203 163.531 148.202C163.534 148.201 163.536 148.199 163.538 148.197C163.539 148.195 163.541 148.193 163.541 148.191C163.542 148.188 163.542 148.185 163.542 148.183C163.542 148.18 163.541 148.178 163.54 148.175C163.539 148.173 163.537 148.171 163.535 148.169C163.533 148.168 163.53 148.166 163.528 148.166C163.426 148.132 163.315 148.138 163.217 148.182C163.174 148.205 163.136 148.237 163.107 148.276C163.077 148.315 163.057 148.359 163.047 148.407L163.028 148.476L163.081 148.427C163.125 148.383 163.182 148.356 163.244 148.349C163.306 148.343 163.368 148.357 163.421 148.39C163.46 148.416 163.488 148.454 163.503 148.498C163.517 148.542 163.517 148.589 163.501 148.633C163.488 148.68 163.46 148.722 163.421 148.752C163.382 148.782 163.333 148.798 163.283 148.799C163.28 148.798 163.278 148.799 163.275 148.8C163.273 148.8 163.27 148.802 163.268 148.803C163.266 148.805 163.264 148.807 163.263 148.809C163.262 148.812 163.261 148.814 163.261 148.817C163.261 148.822 163.263 148.828 163.267 148.832C163.271 148.836 163.276 148.838 163.281 148.839Z" fill="#FB554B"/>
<path d="M160.014 145.654C160.014 145.654 159.031 146.671 159.256 149.593L159.936 146.71L160.014 145.654Z" fill="#F32527"/>
<path d="M163.125 156.333C162.744 156.381 162.361 156.406 161.977 156.406H161.909C161.559 156.402 161.21 156.38 160.864 156.338L160.913 156.128L161.696 152.915L161.909 152.045L161.956 151.844L162.043 151.493H165.771C166.106 151.524 166.433 151.614 166.736 151.759C167.476 152.167 168.173 152.645 168.819 153.186C167.408 154.916 165.368 156.043 163.125 156.333Z" fill="#F43E31"/>
<path d="M161.909 151.493V156.406C161.559 156.402 161.21 156.38 160.864 156.338L160.588 156.299C158.388 155.954 156.406 154.801 155.044 153.076C155.738 152.592 156.464 152.152 157.216 151.759C157.518 151.614 157.844 151.524 158.179 151.493H161.909Z" fill="#F43E31"/>
<path d="M160.864 156.338L160.589 156.299L160.913 156.133C161.365 155.899 161.664 155.748 161.691 155.748C161.766 155.769 161.838 155.796 161.909 155.828C162.157 155.926 162.598 156.112 163.125 156.338C162.744 156.386 162.361 156.411 161.977 156.411H161.909C161.559 156.406 161.21 156.381 160.864 156.338Z" fill="#FFFFFD"/>
<path d="M159.749 151.493H164.466C164.466 151.493 163.616 152.937 161.984 152.93C161.236 152.927 160.436 152.66 159.749 151.493Z" fill="#FCA085"/>
<path d="M156.502 153.326C156.514 153.326 156.525 153.323 156.535 153.318C156.545 153.313 156.553 153.306 156.56 153.297C157.09 152.551 157.542 152.55 157.542 152.55C157.561 152.55 157.579 152.543 157.592 152.53C157.605 152.517 157.613 152.5 157.614 152.482C157.614 152.473 157.612 152.464 157.608 152.455C157.604 152.447 157.599 152.439 157.592 152.433C157.586 152.427 157.578 152.422 157.569 152.418C157.561 152.415 157.551 152.413 157.542 152.414C157.517 152.414 157.01 152.424 156.445 153.218C156.437 153.228 156.433 153.24 156.432 153.253C156.431 153.265 156.433 153.278 156.439 153.289C156.445 153.3 156.454 153.31 156.466 153.316C156.477 153.323 156.489 153.326 156.502 153.326Z" fill="#0D060E"/>
<path d="M156.654 154.025C156.667 154.025 156.679 154.021 156.69 154.015C156.702 154.008 156.711 153.998 156.716 153.987C157.122 153.189 157.566 153.11 157.576 153.108C157.585 153.107 157.594 153.104 157.602 153.099C157.61 153.095 157.617 153.088 157.623 153.081C157.628 153.074 157.632 153.066 157.634 153.057C157.637 153.048 157.637 153.039 157.636 153.03C157.633 153.012 157.623 152.996 157.608 152.985C157.593 152.974 157.574 152.969 157.556 152.972C157.535 152.972 157.032 153.055 156.591 153.925C156.586 153.933 156.584 153.942 156.583 153.951C156.582 153.96 156.583 153.97 156.586 153.978C156.589 153.987 156.593 153.995 156.599 154.002C156.605 154.009 156.613 154.014 156.621 154.018C156.631 154.023 156.642 154.025 156.654 154.025Z" fill="#0D060E"/>
<path d="M153.792 79.8419C153.791 80.9562 154.012 82.06 154.443 83.0914L154.474 83.1612C154.473 83.1662 154.473 83.1712 154.474 83.1762C154.87 84.0938 155.426 84.937 156.118 85.6681L156.18 85.7312L156.246 85.7993C157.522 87.0888 159.18 87.954 160.986 88.2729C162.793 88.5919 164.656 88.3484 166.313 87.5769C166.527 87.4756 166.736 87.3676 166.94 87.2446C166.974 87.2247 167.009 87.2064 167.043 87.1848C167.137 87.1317 167.227 87.0752 167.318 87.0187L167.41 86.9589C168.038 86.5455 168.609 86.0547 169.109 85.4986C169.291 85.2976 169.463 85.0866 169.619 84.869C169.972 84.395 170.274 83.886 170.519 83.3506C171.055 82.186 171.317 80.919 171.287 79.6425C171.257 78.366 170.935 77.1123 170.345 75.9731C169.755 74.8339 168.912 73.8382 167.878 73.0587C166.844 72.2793 165.644 71.7359 164.367 71.4683C163.09 71.2007 161.768 71.2158 160.498 71.5124C159.228 71.8089 158.042 72.3795 157.027 73.1823C156.011 73.9851 155.192 74.9998 154.63 76.1521C154.067 77.3044 153.775 78.5651 153.775 79.8419H153.792Z" fill="#FFFFFD"/>
<path d="M165.325 75.8898C165.325 75.8898 165.995 74.383 164.23 73.1354C162.464 71.8878 162.191 74.0275 161.511 74.2319C160.831 74.4362 159.601 74.2036 159.154 75.4496C158.708 76.6955 158.974 77.6093 158.259 77.8086C157.544 78.008 155.211 79.8022 155.843 82.1379C156.475 84.4737 158.798 84.3125 158.798 84.3125C158.798 84.3125 167.923 84.5883 168.513 82.2625C169.102 79.9367 168.207 78.9399 167.04 78.1724C166.326 77.7056 164.892 77.3219 165.325 75.8898Z" fill="#35282A"/>
<path d="M164.389 76.634C164.389 76.634 165.195 79.7905 164.714 80.5613C164.614 80.7008 164.483 80.8162 164.331 80.8988C164.179 80.9814 164.009 81.029 163.835 81.0381L164.034 83.0466L161.136 83.3207L160.492 76.7304L164.389 76.634Z" fill="#FC8759"/>
<path d="M163.691 79.2439C163.685 79.2443 163.679 79.2427 163.673 79.2394C163.668 79.2361 163.664 79.2313 163.662 79.2256C163.66 79.2188 163.661 79.2116 163.665 79.2055C163.668 79.1993 163.674 79.1947 163.681 79.1924C163.851 79.1409 163.934 78.9266 163.958 78.8601C163.848 78.8244 163.748 78.7659 163.665 78.6888C163.581 78.6116 163.515 78.5176 163.472 78.4132C163.41 78.1992 163.437 77.9702 163.546 77.7753C163.548 77.7722 163.551 77.7695 163.553 77.7673C163.556 77.7652 163.559 77.7636 163.563 77.7627C163.566 77.7617 163.57 77.7615 163.574 77.7619C163.577 77.7624 163.581 77.7635 163.584 77.7653C163.587 77.767 163.589 77.7693 163.591 77.772C163.593 77.7747 163.595 77.7778 163.596 77.781C163.596 77.7843 163.597 77.7876 163.596 77.7909C163.595 77.7942 163.594 77.7974 163.592 77.8002C163.491 77.9828 163.466 78.1962 163.521 78.3966C163.564 78.4973 163.629 78.5875 163.712 78.6607C163.795 78.7339 163.893 78.7884 164 78.8202L164.022 78.8302V78.8518C164.022 78.8651 163.929 79.1841 163.703 79.2455L163.691 79.2439Z" fill="#FB554B"/>
<path d="M163.915 81.8471L163.835 81.0381C163.835 81.0381 162.432 81.0896 161.521 80.6427C161.521 80.6427 162.794 81.6262 163.915 81.8471Z" fill="#FB554B"/>
<path d="M161.937 78.0344C161.931 78.0353 161.924 78.0349 161.918 78.0332C161.911 78.0315 161.905 78.0285 161.9 78.0245C161.889 78.016 161.882 78.0036 161.88 77.9899C161.878 77.9763 161.882 77.9625 161.89 77.9514C161.89 77.9514 162.507 77.2021 163.174 77.6324C163.186 77.6402 163.194 77.6519 163.197 77.6652C163.199 77.6785 163.197 77.6923 163.19 77.7039C163.181 77.7151 163.169 77.7229 163.155 77.7257C163.141 77.7285 163.127 77.726 163.115 77.7188C162.53 77.3417 161.997 77.9879 161.973 78.0162C161.964 78.0264 161.951 78.0329 161.937 78.0344Z" fill="#2F0E1B"/>
<path d="M163.762 77.7488C163.751 77.7504 163.74 77.7485 163.73 77.7434C163.72 77.7383 163.712 77.7303 163.707 77.7205C163.703 77.7107 163.701 77.6997 163.703 77.6889C163.705 77.6782 163.71 77.6683 163.718 77.6607C163.737 77.6425 164.168 77.2055 164.491 77.4265C164.497 77.4304 164.502 77.4354 164.505 77.4412C164.509 77.4469 164.512 77.4533 164.513 77.4601C164.514 77.4668 164.514 77.4736 164.512 77.4803C164.511 77.4869 164.508 77.4932 164.504 77.4988C164.5 77.5043 164.495 77.5091 164.489 77.5127C164.483 77.5163 164.477 77.5188 164.47 77.52C164.463 77.5211 164.456 77.5209 164.449 77.5194C164.442 77.5179 164.436 77.5152 164.43 77.5112C164.182 77.3451 163.8 77.7289 163.796 77.7322C163.787 77.7412 163.775 77.747 163.762 77.7488Z" fill="#2F0E1B"/>
<path d="M164.399 78.0927C164.403 78.1122 164.402 78.1321 164.396 78.1512C164.391 78.1703 164.382 78.1882 164.37 78.2038C164.358 78.2193 164.342 78.2322 164.324 78.2417C164.307 78.2512 164.287 78.257 164.267 78.2588C164.247 78.2616 164.226 78.2604 164.207 78.2552C164.187 78.25 164.169 78.241 164.153 78.2288C164.137 78.2165 164.124 78.2012 164.114 78.1838C164.105 78.1664 164.099 78.1473 164.097 78.1276C164.093 78.0894 164.105 78.0514 164.13 78.0218C164.155 77.9923 164.191 77.9735 164.23 77.9697C164.269 77.964 164.309 77.9738 164.34 77.9968C164.372 78.0199 164.394 78.0543 164.399 78.0927Z" fill="#010103"/>
<path d="M162.942 78.2155C162.945 78.2537 162.932 78.2915 162.907 78.3209C162.882 78.3503 162.846 78.3691 162.807 78.3733C162.768 78.3768 162.729 78.365 162.699 78.3404C162.669 78.3158 162.65 78.2804 162.646 78.2421C162.642 78.2037 162.655 78.1656 162.68 78.136C162.705 78.1064 162.741 78.0878 162.78 78.0843C162.819 78.081 162.858 78.093 162.888 78.1175C162.919 78.1421 162.938 78.1773 162.942 78.2155Z" fill="#010103"/>
<path d="M161.292 79.008C161.308 79.1677 161.275 79.3283 161.197 79.4695C161.119 79.6108 161.001 79.7264 160.856 79.8017C160.711 79.8769 160.546 79.9085 160.383 79.8924C160.22 79.8762 160.065 79.8131 159.939 79.7111C159.812 79.609 159.72 79.4725 159.672 79.3189C159.625 79.1653 159.626 79.0015 159.674 78.8481C159.722 78.6948 159.815 78.5588 159.943 78.4575C160.07 78.3561 160.225 78.2939 160.388 78.2787C160.496 78.2684 160.606 78.2791 160.71 78.3102C160.814 78.3413 160.911 78.3922 160.995 78.4599C161.079 78.5277 161.148 78.611 161.199 78.705C161.25 78.7991 161.282 78.902 161.292 79.008Z" fill="#FC8759"/>
<path d="M160.456 79.5894C160.38 79.596 160.304 79.5774 160.24 79.5368C160.177 79.4961 160.129 79.4356 160.104 79.3651C160.073 79.3002 160.066 79.227 160.083 79.1573C160.1 79.0877 160.14 79.0256 160.198 78.9814C160.258 78.9351 160.331 78.9074 160.408 78.9017C160.484 78.8961 160.561 78.9129 160.628 78.9498C160.589 78.8755 160.526 78.8168 160.448 78.7837C160.328 78.7442 160.199 78.7483 160.082 78.7953C160.076 78.7981 160.068 78.7983 160.062 78.7958C160.055 78.7933 160.049 78.7884 160.047 78.782C160.045 78.779 160.044 78.7757 160.044 78.7724C160.044 78.769 160.045 78.7657 160.046 78.7626C160.047 78.7595 160.049 78.7567 160.052 78.7543C160.054 78.7519 160.057 78.7501 160.06 78.7488C160.19 78.694 160.335 78.6898 160.468 78.7372C160.526 78.7636 160.578 78.8018 160.619 78.8494C160.661 78.897 160.692 78.9528 160.709 79.0129L160.741 79.0993L160.668 79.0412C160.607 78.9924 160.531 78.9646 160.451 78.9622C160.372 78.9598 160.295 78.9829 160.23 79.0279C160.181 79.0666 160.146 79.1205 160.132 79.1809C160.118 79.2413 160.126 79.3045 160.154 79.3602C160.175 79.42 160.216 79.4712 160.271 79.5055C160.325 79.5398 160.39 79.5553 160.454 79.5495C160.461 79.549 160.469 79.5511 160.474 79.5554C160.48 79.5597 160.484 79.5659 160.485 79.5728C160.485 79.5796 160.483 79.5863 160.479 79.5916C160.474 79.5968 160.468 79.6002 160.461 79.601L160.456 79.5894Z" fill="#FB554B"/>
<path d="M164.389 76.634C164.389 76.634 164.016 75.4163 162.303 75.4395C160.59 75.4628 160.485 76.7304 160.485 76.7304L162.461 76.9314L164.264 76.6373L164.389 76.634Z" fill="#FC8759"/>
<path d="M164.286 75.5824C164.286 75.5824 163.327 76.6938 161.934 76.5941C161.934 76.5941 161.639 78.2737 160.639 78.292C159.64 78.3102 159.96 75.9911 159.96 75.9911C159.96 75.9911 161.742 75.0774 161.859 75.0657C161.977 75.0541 163.934 74.7534 163.934 74.7534L164.286 75.5824Z" fill="#35282A"/>
<path d="M163.986 79.5761C163.971 79.5761 162.981 79.4731 162.981 79.4731C162.981 79.4731 163.072 79.8835 163.439 79.9217C163.806 79.9599 163.986 79.5761 163.986 79.5761Z" fill="#FBFDFA"/>
<path d="M155.797 82.6694C155.332 82.7665 154.885 82.9347 154.474 83.1678C154.473 83.1728 154.473 83.1778 154.474 83.1828C154.87 84.1004 155.426 84.9437 156.118 85.6747L156.179 85.7378L156.246 85.806C157.522 87.0955 159.18 87.9607 160.986 88.2796C162.793 88.5985 164.655 88.355 166.313 87.5835C166.527 87.4822 166.736 87.3742 166.939 87.2513C166.973 87.2313 167.009 87.2131 167.043 87.1915C167.137 87.1383 167.227 87.0818 167.318 87.0253L167.41 86.9655C168.038 86.5521 168.609 86.0613 169.109 85.5053C169.291 85.3042 169.463 85.0933 169.619 84.8756C169.972 84.4016 170.274 83.8927 170.519 83.3572C170.088 83.0748 169.238 82.8588 168.27 82.7093C167.519 82.5897 166.695 82.5017 165.937 82.4385C165.149 82.3721 164.432 82.3339 163.944 82.3123C163.541 82.294 163.295 82.2874 163.295 82.2874C163.295 82.2874 162.305 82.2873 161.018 82.3239C160.439 82.3388 159.798 82.3588 159.161 82.3854C158.672 82.407 158.188 82.4319 157.732 82.4618C157.053 82.5083 156.451 82.5648 156.004 82.6362L155.903 82.6545H155.904L155.826 82.6678L155.797 82.6694Z" fill="#F43E31"/>
<path d="M154.443 83.0914L154.474 83.1612C154.473 83.1661 154.473 83.1712 154.474 83.1761C154.634 83.0926 154.801 83.0226 154.973 82.9668C155.325 82.8594 155.685 82.7751 156.049 82.7143C156.521 82.6323 157.07 82.5648 157.695 82.5116C157.707 82.5099 157.719 82.5037 157.727 82.4941C157.735 82.4845 157.738 82.4724 157.737 82.4601C157.735 82.4491 157.728 82.4395 157.719 82.4328C157.709 82.4261 157.698 82.4228 157.686 82.4236C157.049 82.48 156.489 82.5498 156.01 82.6345L155.908 82.6528H155.904L155.799 82.6728C155.511 82.7259 155.228 82.7964 154.949 82.8837C154.775 82.9389 154.605 83.0084 154.443 83.0914Z" fill="#010103"/>
<path d="M165.954 82.432C165.954 82.432 162.624 85.6798 159.173 82.3788C159.173 82.3788 163.117 81.9452 165.954 82.432Z" fill="#FC8759"/>
<path d="M171.301 182.563C171.302 184.72 170.468 186.797 168.966 188.377L168.905 188.442L168.839 188.508C167.999 189.359 166.987 190.03 165.868 190.479C164.75 190.928 163.548 191.146 162.339 191.118C161.13 191.091 159.94 190.818 158.844 190.319C157.747 189.819 156.769 189.102 155.97 188.214C155.789 188.012 155.619 187.802 155.461 187.585C154.649 186.491 154.114 185.225 153.899 183.891C153.684 182.557 153.795 181.191 154.222 179.907C154.65 178.622 155.383 177.455 156.36 176.5C157.338 175.545 158.532 174.83 159.846 174.413C161.161 173.996 162.557 173.889 163.922 174.101C165.286 174.313 166.58 174.837 167.698 175.631C168.815 176.426 169.725 177.467 170.352 178.671C170.979 179.875 171.306 181.207 171.306 182.558L171.301 182.563Z" fill="#FFFFFD"/>
<path d="M160.765 186.555L160.585 186.887L160.439 187.158L159.712 188.522L159.635 188.663L158.772 190.284C157.705 189.785 156.752 189.08 155.97 188.213C155.789 188.01 155.619 187.8 155.461 187.583C155.567 187.481 155.686 187.393 155.816 187.321C157.109 186.605 159.554 186.541 160.435 186.543C160.641 186.55 160.765 186.555 160.765 186.555Z" fill="#35282A"/>
<path d="M155.97 188.219C156.382 187.636 156.891 187.232 157.518 187.146C158.208 187.053 159.304 186.97 160.425 186.903L160.585 186.894C162.179 186.799 163.781 186.727 164.289 186.717H164.459L164.498 186.727C164.636 186.762 165.094 186.874 164.913 186.792C166.717 187.103 167.998 187.737 168.909 188.453L168.842 188.52C168.002 189.37 166.991 190.041 165.872 190.491C164.753 190.94 163.551 191.158 162.342 191.13C161.133 191.102 159.943 190.83 158.847 190.33C157.751 189.83 156.773 189.114 155.974 188.226L155.97 188.219Z" fill="#35282A"/>
<path d="M162.672 190.121L162.891 190.14C162.901 190.14 162.911 190.139 162.92 190.136C162.93 190.133 162.939 190.128 162.946 190.121C162.954 190.115 162.96 190.107 162.965 190.098C162.969 190.089 162.972 190.08 162.972 190.07C162.973 190.06 162.972 190.05 162.969 190.041C162.966 190.031 162.961 190.023 162.954 190.015C162.947 190.008 162.939 190.002 162.93 189.997C162.921 189.993 162.911 189.991 162.901 189.99C159.722 189.773 159.132 187.498 159.127 187.473C159.124 187.454 159.112 187.437 159.096 187.426C159.079 187.415 159.059 187.41 159.039 187.414C159.019 187.416 159.002 187.427 158.99 187.442C158.978 187.458 158.973 187.477 158.976 187.497C158.98 187.528 159.566 189.808 162.672 190.121Z" fill="#0D060E"/>
<path d="M164.479 186.628C166.567 186.914 167.998 187.625 168.966 188.382L168.905 188.447L168.839 188.513C167.901 187.782 166.52 187.098 164.508 186.814L164.369 186.794C164.349 186.792 164.33 186.783 164.316 186.769C164.301 186.755 164.292 186.737 164.289 186.718V186.698C164.293 186.674 164.306 186.653 164.325 186.639C164.344 186.625 164.369 186.618 164.393 186.621L164.479 186.628Z" fill="#0D060E"/>
<path d="M162.488 188.917C161.321 188.93 160.38 187.658 160.424 186.126L160.541 183.941L164.228 183.923L164.398 186.143C164.51 187.694 163.679 188.904 162.488 188.917Z" fill="#FC8759"/>
<path d="M160.492 185.462C161.153 187.028 164.031 186.885 164.323 185.339L164.224 183.923L160.538 183.941L160.492 185.462Z" fill="#FB554B"/>
<path d="M164.614 181.599C164.614 181.797 164.674 181.99 164.786 182.154C164.899 182.318 165.058 182.446 165.245 182.521C165.432 182.596 165.638 182.615 165.836 182.576C166.034 182.537 166.215 182.441 166.357 182.3C166.5 182.16 166.596 181.981 166.634 181.787C166.672 181.593 166.651 181.393 166.572 181.211C166.493 181.029 166.361 180.874 166.192 180.765C166.023 180.657 165.825 180.6 165.623 180.602C165.354 180.605 165.097 180.711 164.908 180.898C164.72 181.084 164.614 181.336 164.614 181.599Z" fill="#FC8759"/>
<path d="M165.706 182.212C165.799 182.21 165.888 182.178 165.961 182.121C166.033 182.064 166.084 181.986 166.107 181.898C166.136 181.814 166.135 181.724 166.104 181.641C166.073 181.558 166.014 181.487 165.937 181.441C165.858 181.393 165.765 181.368 165.672 181.37C165.578 181.373 165.487 181.402 165.41 181.454C165.447 181.357 165.517 181.275 165.609 181.224C165.749 181.16 165.907 181.149 166.054 181.194C166.062 181.196 166.071 181.196 166.079 181.192C166.087 181.188 166.092 181.182 166.095 181.174C166.098 181.166 166.097 181.157 166.094 181.149C166.09 181.141 166.083 181.135 166.075 181.132C165.91 181.083 165.733 181.096 165.577 181.167C165.51 181.207 165.452 181.26 165.407 181.323C165.363 181.386 165.332 181.457 165.317 181.533L165.29 181.644L165.373 181.562C165.441 181.496 165.53 181.453 165.626 181.44C165.722 181.428 165.819 181.447 165.903 181.494C165.966 181.535 166.014 181.594 166.039 181.664C166.063 181.734 166.063 181.81 166.039 181.88C166.021 181.955 165.978 182.022 165.916 182.071C165.855 182.12 165.778 182.147 165.699 182.149C165.691 182.149 165.683 182.153 165.677 182.159C165.671 182.164 165.667 182.172 165.667 182.18C165.667 182.185 165.667 182.189 165.669 182.193C165.67 182.197 165.673 182.2 165.676 182.203C165.679 182.206 165.683 182.209 165.687 182.21C165.691 182.212 165.695 182.212 165.699 182.212H165.706Z" fill="#FB554B"/>
<path d="M165.361 180.903C165.788 175.587 157.314 173.371 159.423 182.596C160.507 186.583 165.553 186.086 165.361 180.903Z" fill="#FC8759"/>
<path d="M159.841 181.624C159.841 181.821 159.781 182.014 159.669 182.178C159.557 182.342 159.398 182.469 159.212 182.545C159.025 182.62 158.82 182.64 158.623 182.602C158.425 182.563 158.243 182.468 158.101 182.329C157.958 182.189 157.861 182.012 157.822 181.818C157.782 181.625 157.803 181.425 157.88 181.243C157.957 181.06 158.088 180.905 158.255 180.795C158.423 180.686 158.62 180.627 158.822 180.627C159.092 180.627 159.351 180.732 159.542 180.919C159.734 181.106 159.841 181.36 159.841 181.624Z" fill="#FC8759"/>
<path d="M158.754 182.24C158.661 182.238 158.572 182.207 158.499 182.151C158.426 182.095 158.374 182.017 158.351 181.93C158.32 181.847 158.32 181.756 158.349 181.673C158.378 181.59 158.435 181.519 158.511 181.471C158.589 181.421 158.68 181.395 158.773 181.395C158.866 181.395 158.957 181.421 159.036 181.471C158.998 181.374 158.928 181.293 158.837 181.242C158.696 181.18 158.537 181.171 158.39 181.217C158.382 181.22 158.373 181.219 158.365 181.215C158.358 181.211 158.352 181.205 158.349 181.197C158.348 181.193 158.347 181.189 158.347 181.185C158.347 181.18 158.348 181.176 158.35 181.173C158.352 181.169 158.355 181.165 158.358 181.163C158.362 181.16 158.365 181.158 158.37 181.157C158.533 181.105 158.711 181.116 158.867 181.187C158.935 181.226 158.994 181.278 159.039 181.34C159.084 181.403 159.116 181.474 159.131 181.549L159.16 181.66L159.076 181.579C159.007 181.513 158.917 181.471 158.821 181.46C158.725 181.449 158.628 181.469 158.545 181.518C158.482 181.558 158.435 181.618 158.411 181.688C158.387 181.758 158.387 181.833 158.412 181.903C158.431 181.977 158.475 182.044 158.536 182.092C158.598 182.14 158.673 182.167 158.752 182.169C158.76 182.169 158.769 182.173 158.775 182.178C158.781 182.184 158.785 182.192 158.786 182.2C158.785 182.209 158.782 182.216 158.776 182.222C158.77 182.228 158.762 182.232 158.754 182.232V182.24Z" fill="#FB554B"/>
<path d="M161.331 180.984C161.331 181.025 161.319 181.064 161.297 181.098C161.274 181.131 161.242 181.157 161.204 181.173C161.166 181.188 161.125 181.193 161.084 181.185C161.044 181.177 161.007 181.158 160.978 181.13C160.949 181.102 160.929 181.066 160.92 181.026C160.912 180.987 160.916 180.946 160.932 180.909C160.948 180.872 160.974 180.84 161.008 180.818C161.042 180.795 161.083 180.783 161.124 180.783C161.151 180.783 161.178 180.788 161.203 180.798C161.228 180.808 161.251 180.823 161.27 180.842C161.289 180.86 161.305 180.883 161.315 180.907C161.326 180.932 161.331 180.958 161.331 180.984Z" fill="#010103"/>
<path d="M163.468 181.013C163.468 181.066 163.49 181.118 163.529 181.156C163.568 181.194 163.621 181.215 163.676 181.215C163.731 181.215 163.783 181.194 163.822 181.156C163.861 181.118 163.883 181.066 163.883 181.013C163.883 180.959 163.861 180.907 163.822 180.869C163.783 180.831 163.731 180.81 163.676 180.81C163.621 180.81 163.568 180.831 163.529 180.869C163.49 180.907 163.468 180.959 163.468 181.013Z" fill="#010103"/>
<path d="M164.53 180.657C164.49 180.657 164.451 180.643 164.42 180.617C163.934 180.219 163.23 180.451 163.23 180.451C163.19 180.46 163.147 180.455 163.11 180.435C163.073 180.415 163.045 180.382 163.031 180.344C163.018 180.305 163.019 180.262 163.035 180.225C163.052 180.187 163.082 180.156 163.12 180.139C163.156 180.126 164.007 179.848 164.649 180.368C164.683 180.396 164.704 180.437 164.708 180.48C164.712 180.524 164.698 180.567 164.67 180.601C164.652 180.62 164.631 180.635 164.607 180.645C164.582 180.655 164.556 180.659 164.53 180.657Z" fill="#2D0F28"/>
<path d="M160.307 180.662C160.272 180.662 160.238 180.651 160.21 180.632C160.182 180.612 160.16 180.585 160.149 180.553C160.137 180.521 160.135 180.486 160.144 180.454C160.153 180.421 160.172 180.392 160.198 180.37C160.84 179.856 161.688 180.147 161.727 180.16C161.751 180.165 161.774 180.175 161.794 180.189C161.813 180.203 161.83 180.221 161.842 180.241C161.854 180.262 161.861 180.285 161.863 180.309C161.866 180.333 161.862 180.357 161.854 180.38C161.846 180.402 161.833 180.423 161.815 180.44C161.798 180.457 161.778 180.47 161.755 180.479C161.732 180.487 161.707 180.491 161.683 180.489C161.658 180.488 161.635 180.481 161.613 180.469C161.613 180.469 160.908 180.232 160.424 180.624C160.391 180.651 160.349 180.664 160.307 180.662Z" fill="#2D0F28"/>
<path d="M161.815 183.127C161.834 183.127 163.069 183.091 163.069 183.091C163.069 183.091 162.916 183.589 162.457 183.604C161.999 183.619 161.815 183.127 161.815 183.127Z" fill="#FBFDFA"/>
<path d="M165.375 176.941C164.67 175.687 159.99 175.102 158.98 176.896C158.762 177.281 158.796 180.423 158.961 180.68C159.094 180.854 159.28 180.982 159.493 181.046C159.493 181.046 159.523 178.494 159.676 178.159C159.829 177.823 160.721 177.142 161.384 177.703C161.723 177.999 161.98 178.036 162.141 178.019C162.298 178.066 162.568 178.056 162.964 177.725C163.632 177.168 164.517 177.86 164.663 178.197C164.809 178.534 164.816 181.086 164.816 181.086C165.029 181.024 165.217 180.897 165.353 180.725C165.523 180.468 165.589 177.326 165.375 176.941Z" fill="#35282A"/>
<path d="M162.855 182.196C162.862 182.195 162.868 182.193 162.873 182.188C162.878 182.184 162.882 182.179 162.884 182.172C162.885 182.168 162.885 182.164 162.884 182.16C162.884 182.156 162.882 182.152 162.88 182.149C162.878 182.146 162.875 182.143 162.871 182.14C162.868 182.138 162.864 182.137 162.86 182.136L162.221 181.983L162.301 180.533C162.301 180.529 162.301 180.524 162.299 180.521C162.298 180.517 162.296 180.513 162.293 180.51C162.29 180.507 162.286 180.505 162.283 180.503C162.279 180.502 162.275 180.501 162.271 180.501C162.267 180.501 162.263 180.501 162.259 180.503C162.255 180.504 162.251 180.506 162.248 180.509C162.245 180.511 162.243 180.514 162.241 180.518C162.239 180.522 162.239 180.525 162.238 180.529L162.157 182.024L162.847 182.191L162.855 182.196Z" fill="#FB554B"/>
<path d="M163.866 183.179C163.862 182.991 163.797 182.808 163.679 182.659C163.562 182.51 163.399 182.401 163.214 182.348C162.823 182.267 162.421 182.25 162.024 182.297C160.41 182.224 160.986 185.354 162.145 185.495C163.898 185.716 163.89 184.304 163.866 183.179ZM161.567 182.948C161.684 182.719 162.682 182.647 163.191 182.813C163.264 182.837 163.327 182.881 163.373 182.941C163.42 183 163.447 183.071 163.451 183.146C163.487 183.742 163.112 184.918 162.636 183.848L162.318 183.858C161.888 185.3 161.314 183.315 161.567 182.948Z" fill="#2D0F28"/>
<path d="M151.774 53.1965C151.773 53.432 151.702 53.6621 151.568 53.8578C151.434 54.0534 151.243 54.2059 151.021 54.2958C150.798 54.3857 150.553 54.409 150.317 54.3629C150.081 54.3167 149.864 54.2031 149.694 54.0365C149.523 53.8698 149.408 53.6576 149.361 53.4266C149.314 53.1956 149.338 52.9562 149.43 52.7386C149.523 52.521 149.679 52.3351 149.879 52.2043C150.079 52.0735 150.315 52.0037 150.556 52.0037C150.716 52.0037 150.874 52.0345 151.022 52.0945C151.17 52.1545 151.304 52.2424 151.418 52.3531C151.531 52.4639 151.62 52.5954 151.682 52.7401C151.743 52.8848 151.774 53.0399 151.774 53.1965Z" fill="#FFFFFD"/>
<path d="M155.544 53.1965C155.544 53.432 155.472 53.6621 155.338 53.8578C155.204 54.0534 155.014 54.2059 154.791 54.2958C154.568 54.3857 154.323 54.409 154.087 54.3629C153.851 54.3167 153.634 54.2031 153.464 54.0365C153.294 53.8698 153.178 53.6576 153.131 53.4266C153.084 53.1956 153.108 52.9562 153.201 52.7386C153.293 52.521 153.449 52.3351 153.649 52.2043C153.85 52.0735 154.085 52.0037 154.326 52.0037C154.486 52.0037 154.645 52.0345 154.792 52.0945C154.94 52.1545 155.075 52.2424 155.188 52.3531C155.301 52.4639 155.391 52.5954 155.452 52.7401C155.513 52.8848 155.544 53.0399 155.544 53.1965Z" fill="#FFFFFD"/>
<path d="M159.316 53.1965C159.316 53.4324 159.244 53.663 159.11 53.8592C158.976 54.0553 158.786 54.2082 158.563 54.2985C158.34 54.3888 158.095 54.4124 157.858 54.3664C157.621 54.3203 157.404 54.2067 157.233 54.0399C157.063 53.8731 156.947 53.6606 156.9 53.4292C156.852 53.1978 156.877 52.958 156.969 52.74C157.061 52.522 157.218 52.3358 157.418 52.2047C157.619 52.0736 157.855 52.0037 158.096 52.0037C158.42 52.0037 158.73 52.1293 158.959 52.353C159.187 52.5767 159.316 52.8801 159.316 53.1965Z" fill="#FFFFFD"/>
<path d="M217.015 51.0518V51.9007H216.523V53.3609H217.015V54.3876H226.596V51.0518H217.015ZM226.268 54.1152H217.343V51.3242H226.268V54.1152Z" fill="#FFFFFD"/>
<path d="M225.725 51.7579H224.778V53.6651H225.725V51.7579Z" fill="#FFFFFD"/>
<path d="M224.138 51.7579H223.191V53.6651H224.138V51.7579Z" fill="#FFFFFD"/>
<path d="M222.507 51.7579H221.56V53.6651H222.507V51.7579Z" fill="#FFFFFD"/>
<path opacity="0.5" d="M221.224 205.003H156.49C155.672 205.022 154.894 205.353 154.322 205.925C153.751 206.497 153.43 207.266 153.43 208.066C153.43 208.866 153.751 209.634 154.322 210.207C154.894 210.779 155.672 211.11 156.49 211.128H221.224C221.641 211.138 222.057 211.066 222.445 210.916C222.834 210.766 223.188 210.542 223.486 210.257C223.785 209.972 224.022 209.631 224.184 209.255C224.347 208.878 224.43 208.474 224.43 208.066C224.43 207.658 224.347 207.253 224.184 206.877C224.022 206.501 223.785 206.16 223.486 205.875C223.188 205.589 222.834 205.365 222.445 205.216C222.057 205.066 221.641 204.994 221.224 205.003Z" fill="white"/>
<path d="M193.611 197.627C193.617 197.641 193.624 197.655 193.633 197.668C193.633 197.654 193.616 197.642 193.609 197.629L193.611 197.627Z" fill="#F07162"/>
<path d="M203.155 41.903H174.424C172.074 41.903 170.17 43.8109 170.17 46.1646V46.8365C170.17 49.1901 172.074 51.0981 174.424 51.0981H203.155C205.505 51.0981 207.41 49.1901 207.41 46.8365V46.1646C207.41 43.8109 205.505 41.903 203.155 41.903Z" fill="#0C5137"/>
</g>
<defs>
<clipPath id="clip0_33_567">
<rect width="380" height="331" fill="white" transform="translate(-2)"/>
</clipPath>
</defs>
</svg>
