<svg xmlns="http://www.w3.org/2000/svg" xml:space="preserve" id="shower" x="0" y="0" style="enable-background:new 0 0 55 55" version="1.1" viewBox="0 0 55 55">
  <g>
    <path d="M44.5065918,21.6948242c0.4140625,0,0.75-0.3359375,0.75-0.75s-0.3359375-0.75-0.75-0.75h-0.1640625
		c-0.2636719-2.0906982-1.609375-3.845459-3.4589844-4.6870117v-1.0688477c0-1.168335-0.8205566-2.1445923-1.9145508-2.394165
		c-0.5975342-1.8270874-1.6057129-3.5109253-2.9770508-4.8822021c-2.3256836-2.3251953-5.4189453-3.6064453-8.7099609-3.6064453
		c-6.7915039,0-12.3168945,5.5253906-12.3168945,12.3164063v30.7324219h-2.4716797c-1.5166016,0-2.75,1.2333984-2.75,2.75v1.3388672
		c0,0.4140625,0.3359375,0.75,0.75,0.75h10.4428711c0.4140625,0,0.75-0.3359375,0.75-0.75v-1.3388672
		c0-1.5166016-1.2338867-2.75-2.75-2.75h-2.4711914V28.0766602h1.7685547v0.3769531c0,0.4140625,0.3359375,0.75,0.75,0.75
		s0.75-0.3359375,0.75-0.75v-2.2529297c0-0.4140625-0.3359375-0.75-0.75-0.75s-0.75,0.3359375-0.75,0.75v0.3759766h-1.7685547
		V15.8725586c0-5.9638672,4.8525391-10.8164063,10.8168945-10.8164063c2.890625,0,5.6069336,1.125,7.6494141,3.1669922
		c1.1240234,1.1236572,1.9661865,2.4881592,2.5024414,3.96698c-0.8647461,0.3818359-1.4711914,1.2446289-1.4711914,2.2488403
		v1.0668945c-1.8518066,0.8408203-3.1994629,2.5967407-3.4633789,4.6889648h-0.1635742c-0.4140625,0-0.75,0.3359375-0.75,0.75
		s0.3359375,0.75,0.75,0.75C38.4058647,21.6948242,41.1350479,21.6948242,44.5065918,21.6948242z M20.1862793,49.3549805v0.5888672
		h-8.9428711v-0.5888672c0-0.6894531,0.5605469-1.25,1.25-1.25h6.4428711
		C19.6257324,48.1049805,20.1862793,48.6655273,20.1862793,49.3549805z M37.4626465,14.4389648
		c0-0.5231934,0.4217529-0.9466553,0.9431152-0.9564819c0.0085449,0.0001831,0.0170898-0.001709,0.0256348-0.00177
		c0.5256348,0.0048828,0.9521484,0.4319458,0.9521484,0.958252v0.6161499
		c-0.3140869-0.0512085-0.6340332-0.0848999-0.9624023-0.0848999c-0.3269043,0-0.6456299,0.0335083-0.9584961,0.0842896V14.4389648z
		 M34.0100098,20.1948242c0.3579102-2.1113281,2.199707-3.7246094,4.4111328-3.7246094s4.0532227,1.6132813,4.4106445,3.7246094
		H34.0100098z"></path>
    <path d="M42.927002 26.5014648c0-.4140625-.3359375-.75-.75-.75s-.75.3359375-.75.75v1.1279297c0 .4140625.3359375.75.75.75s.75-.3359375.75-.75V26.5014648zM35.4191895 26.5014648c0-.4140625-.3359375-.75-.75-.75s-.75.3359375-.75.75v1.1279297c0 .4140625.3359375.75.75.75s.75-.3359375.75-.75V26.5014648zM39.1730957 24.4819336c0-.4140625-.3359375-.75-.75-.75s-.75.3359375-.75.75v1.1289063c0 .4140625.3359375.75.75.75s.75-.3359375.75-.75V24.4819336zM42.927002 34.7758789c0-.4140625-.3359375-.75-.75-.75s-.75.3359375-.75.75v1.1279297c0 .4140625.3359375.75.75.75s.75-.3359375.75-.75V34.7758789zM35.4191895 34.7758789c0-.4140625-.3359375-.75-.75-.75s-.75.3359375-.75.75v1.1279297c0 .4140625.3359375.75.75.75s.75-.3359375.75-.75V34.7758789zM39.1730957 32.7573242c0-.4140625-.3359375-.75-.75-.75s-.75.3359375-.75.75v1.1279297c0 .4140625.3359375.75.75.75s.75-.3359375.75-.75V32.7573242zM42.177002 42.300293c-.4140625 0-.75.3359375-.75.75v1.1289063c0 .4140625.3359375.75.75.75s.75-.3359375.75-.75V43.050293C42.927002 42.6362305 42.5910645 42.300293 42.177002 42.300293zM34.6691895 42.300293c-.4140625 0-.75.3359375-.75.75v1.1289063c0 .4140625.3359375.75.75.75s.75-.3359375.75-.75V43.050293C35.4191895 42.6362305 35.083252 42.300293 34.6691895 42.300293zM38.4230957 40.2817383c-.4140625 0-.75.3359375-.75.75v1.1279297c0 .4140625.3359375.75.75.75s.75-.3359375.75-.75v-1.1279297C39.1730957 40.6176758 38.8371582 40.2817383 38.4230957 40.2817383z"></path>
  </g>
</svg>
