<svg xmlns="http://www.w3.org/2000/svg" xml:space="preserve" id="bedroom" x="0" y="0" style="enable-background:new 0 0 55 55" version="1.1" viewBox="0 0 55 55">
  <g>
    <path d="M49.2470703,27.5478516V16.9331055c0-0.4140625-0.3359375-0.75-0.75-0.75
		c-2.0512695,0-3.7202148-1.6689453-3.7202148-3.7207031c0-0.4140625-0.3359375-0.75-0.75-0.75H10.9736328
		c-0.4140625,0-0.75,0.3359375-0.75,0.75c0,2.0517578-1.6689453,3.7207031-3.7207031,3.7207031
		c-0.4140625,0-0.75,0.3359375-0.75,0.75v10.6148071C4.4887695,27.6919556,3.5,28.7554932,3.5,30.0571289v8.9306641
		c0,0.4140625,0.3359375,0.75,0.75,0.75h3.0083008v1.7998047c0,0.9648438,0.7851563,1.75,1.75,1.75h1.7700195
		c0.9648438,0,1.75-0.7851563,1.75-1.75V39.737793h29.9433594v1.7998047c0,0.9648438,0.7851563,1.75,1.75,1.75h1.7705078
		c0.9648438,0,1.75-0.7851563,1.75-1.75V39.737793H50.75c0.4140625,0,0.75-0.3359375,0.75-0.75v-8.9306641
		C51.5,28.7553711,50.5109863,27.6916504,49.2470703,27.5478516z M7.2529297,17.6293945
		c2.2797852-0.3291016,4.0874023-2.1376953,4.4169922-4.4169922h31.6606445
		c0.3291016,2.2792969,2.1367188,4.0878906,4.4165039,4.4169922v9.8896484h-4.6518555v-3.7587891
		c0-0.8720455,0.3637733-1.4191742,0.4521484-1.6474609c0.3668137-0.6908665-0.2722511-1.5061092-1.2514648-1.3134766
		c-1.1474609,0.265625-2.3623047,0.4003906-3.6108398,0.4003906h-5.3696289c-1.2578125,0-2.472168-0.1347656-3.6337891-0.4052734
		c-0.8891335-0.1743393-1.5953732,0.5524483-1.2470703,1.3017578c0.0528564,0.1356049,0.4506836,0.716486,0.4506836,1.6337891
		v3.7890625h-2.7802734v-3.7587891c0-0.8711414,0.3636818-1.4189377,0.4521484-1.6474609
		c0.3684769-0.6940022-0.2771301-1.5057392-1.2514648-1.3134766c-1.1474609,0.265625-2.3618164,0.4003906-3.6103516,0.4003906
		h-5.3701172c-1.2402344,0-2.4882813-0.1386719-3.6333008-0.4052734c-0.8951616-0.1751404-1.5930252,0.5574017-1.2475586,1.3007813
		c0.0542088,0.1391926,0.4506836,0.7192936,0.4506836,1.6347656v3.7890625H7.2529297V17.6293945z M30.3852539,27.519043v-3.7890625
		c0-0.4394531-0.0629883-0.8730469-0.1894531-1.2988281c1.0019531,0.1787109,2.0473633,0.2685547,3.1196289,0.2685547h5.3696289
		c1.065918,0,2.1113281-0.0908203,3.1079102-0.2675781c-0.1313477,0.4306641-0.1977539,0.875-0.1977539,1.328125v3.7587891
		H30.3852539z M13.3950195,27.519043c-0.0474567-3.5125504,0.1212416-4.0418453-0.1894531-5.0878906
		c1.0014648,0.1787109,2.0473633,0.2685547,3.1196289,0.2685547h5.3701172c1.065918,0,2.1113281-0.0908203,3.1074219-0.2675781
		c-0.1313477,0.4306641-0.1977539,0.875-0.1977539,1.328125v3.7587891H13.3950195z M6.0385742,29.019043
		c14.6607609,0,27.9865608,0,42.9233398,0C49.5341797,29.019043,50,29.4848633,50,30.0571289v5.109375H5v-5.109375
		C5,29.4848633,5.4658203,29.019043,6.0385742,29.019043z M11.0283203,41.5375977c0,0.1376953-0.1123047,0.25-0.25,0.25H9.0083008
		c-0.1376953,0-0.25-0.1123047-0.25-0.25V39.737793h2.2700195V41.5375977z M46.2421875,41.5375977
		c0,0.1376953-0.1123047,0.25-0.25,0.25h-1.7705078c-0.1376953,0-0.25-0.1123047-0.25-0.25V39.737793h2.2705078V41.5375977z
		 M5,38.237793v-1.5712891h45v1.5712891C44.8915291,38.237793,2.7904134,38.237793,5,38.237793z"></path>
  </g>
</svg>
