<svg xmlns="http://www.w3.org/2000/svg" xml:space="preserve" id="couch" x="0" y="0" style="enable-background:new 0 0 55 55" version="1.1" viewBox="0 0 55 55">
  <g>
    <path d="M49.2109413,20.2702637h-1.4199219v-3.3613281c0-2.0126953-1.6381836-3.6499023-3.6513672-3.6499023H30.4228535
		c-1.1872559,0-2.2333984,0.578064-2.9006348,1.4580688c-0.6672363-0.8800049-1.7133789-1.4580688-2.9006348-1.4580688H10.9042988
		c-2.0131836,0-3.6508789,1.637207-3.6508789,3.6499023v3.3613281H5.8466816c-1.2563477,0-2.2827148,1.0224609-2.2885742,2.2788086
		L3.5000019,35.5866699c-0.0070698,1.4988403,1.2046442,2.7158203,2.7041016,2.7158203h2.987793v1.6484375
		c0,0.9868164,0.8032227,1.7900391,1.7900391,1.7900391H12.64258c0.9868164,0,1.7900391-0.8032227,1.7900391-1.7900391v-1.6484375
		h26.1342793v1.6484375c0,0.9868164,0.8032227,1.7900391,1.7900391,1.7900391h1.6611328
		c0.9868164,0,1.7900391-0.8032227,1.7900391-1.7900391v-1.6484375h2.9296875c1.484375,0,2.6972656-1.2075195,2.7041016-2.6918945
		l0.0581055-13.0410156C51.5060654,21.3003807,50.4800568,20.2702637,49.2109413,20.2702637z M12.9326191,39.9509277
		c0,0.1601563-0.1298828,0.2900391-0.2900391,0.2900391h-1.6606445c-0.1601563,0-0.2900391-0.1298828-0.2900391-0.2900391
		v-1.6479492h2.2407227V39.9509277z M44.3081093,39.9509277c0,0.1601563-0.1298828,0.2900391-0.2900391,0.2900391h-1.6611328
		c-0.1601563,0-0.2900391-0.1298828-0.2900391-0.2900391v-1.6479492h2.2412109V39.9509277z M30.4228535,14.7590332h13.7167988
		c1.1860352,0,2.1513672,0.9643555,2.1513672,2.1499023v3.3613281h-0.105957c-1.2626953,0-2.2900391,1.0268555-2.2900391,2.2890625
		v3.9536133H30.180666c-0.685791,0-1.3422852,0.2028198-1.9082031,0.5827026V16.9089355
		c0-0.0008545-0.0002441-0.0015869-0.0002441-0.0024414C28.2735615,15.722168,29.2376728,14.7590332,30.4228535,14.7590332z
		 M11.1420918,30.689209v-2.6767578h13.7114258c0.8569336,0,1.6181641,0.5712891,1.8442383,1.3647461
		c0.1209946,0.4839783,0.0974998,0.8473301-0.107666,1.3120117H11.1420918z M28.453371,30.689209
		c-0.1986446-0.4482002-0.2314701-0.8127308-0.1130371-1.2890625c0.2406521-0.8483295,1.0017128-1.387207,1.840332-1.387207
		h13.7143574v2.6762695H28.453371z M8.7534199,16.9089355c0-1.1855469,0.9648438-2.1499023,2.1508789-2.1499023h13.7172852
		c1.1851807,0,2.149292,0.9631348,2.1506348,2.1474609c0,0.0008545-0.0002441,0.0015869-0.0002441,0.0024414v10.2041016
		c-0.5549316-0.3763428-1.2160645-0.6005859-1.918457-0.6005859H11.1420918v-3.953125
		c0-1.262207-1.0273438-2.2890625-2.2900391-2.2890625H8.7534199V16.9089355z M49.9418983,35.6037598
		c-0.0029297,0.6611328-0.5429688,1.1987305-1.2041016,1.1987305H6.2041035c-0.6672778,0-1.2071371-0.5410957-1.2041016-1.2089844
		l0.0581055-13.0375977c0.0019531-0.4331055,0.355957-0.7856445,0.7885742-0.7856445h3.0053711
		c0.4355469,0,0.7900391,0.3540039,0.7900391,0.7890625v8.8798828c0,0.4140625,0.3359375,0.75,0.75,0.75h34.2529297
		c0.4140625,0,0.75-0.3359375,0.75-0.75v-8.8798828c0-0.4350586,0.3544922-0.7890625,0.7900391-0.7890625h3.0258789
		c0.4371185,0,0.7910805,0.3549919,0.7890625,0.7924805L49.9418983,35.6037598z"></path>
    <path d="M14.6435566 23.7155762c.2927685-.2927685.2930641-.7669945 0-1.0600586-.2981663-.2960968-.7855062-.2745514-1.0600586 0-.2739048.2758198-.3096638.7503948 0 1.0600586C13.8897581 24.0218353 14.3637877 23.9934025 14.6435566 23.7155762zM18.2934589 23.7155762c.2934437-.2934437.2936974-.7663612 0-1.0600586-.2738514-.2738514-.7611122-.2968693-1.0600586 0-.2926655.2926655-.2931461.7669125 0 1.0600586C17.5305843 24.0106964 18.0019016 24.0071335 18.2934589 23.7155762zM21.9433613 23.7155762c.309618-.309618.2738876-.786171 0-1.0600586-.2738514-.2738514-.7611122-.2968693-1.0600586 0-.2924747.2934971-.2932682.7657661 0 1.0600586C21.1736431 24.0039005 21.6465683 24.0134068 21.9433613 23.7155762zM14.6435566 19.385498c.2915697-.290554.2942457-.7658138 0-1.0600586-.2886343-.2866306-.7616301-.2984276-1.0600586 0-.2958374.2979069-.2911348.7699375 0 1.0600586C13.8832912 19.6852913 14.3570986 19.6719551 14.6435566 19.385498zM18.2934589 19.385498c.2922001-.2911835.2948551-.7652035 0-1.0600586-.2797852-.2797852-.7900391-.2797852-1.0600586 0-.2945786.2945786-.2912769.7697964 0 1.0600586C17.5394764 19.6915741 18.0169487 19.6639423 18.2934589 19.385498zM21.9433613 19.385498c.293602-.2925797.2929897-.7670689 0-1.0600586-.2877064-.2877064-.7615318-.2964535-1.0600586 0-.2936993.2947273-.2920246.768034 0 1.0600586C21.1803131 19.6825085 21.6548519 19.6750164 21.9433613 19.385498zM34.163578 23.7155762c.2927666-.2927685.2930603-.7669945 0-1.0600586-.3031578-.3010502-.8031235-.2694702-1.0600586 0-.2933884.2933884-.2937279.7663345 0 1.0600586C33.3998337 24.0118923 33.8729439 24.0041904 34.163578 23.7155762z"></path>
    <circle cx="37.283" cy="23.186" r=".75"></circle>
    <path d="M41.4633827 23.7155762c.2934418-.2934437.2936974-.7663612 0-1.0600586-.2797852-.2797852-.7900391-.2797852-1.0600586 0-.2777214.2796612-.3055992.7533913 0 1.0600586C40.6967087 24.0089645 41.1696548 24.0093002 41.4633827 23.7155762zM34.163578 19.385498c.2904129-.289402.2949181-.7630768 0-1.0600586-.2816162-.2816124-.7600479-.3000107-1.0600586 0-.2952232.2952213-.2918777.7692013 0 1.0600586C33.4035835 19.6855621 33.8780899 19.6709843 34.163578 19.385498zM37.8134804 19.385498c.2959557-.2949238.290123-.7679062 0-1.0600586-.2754974-.2754974-.7515984-.3084621-1.0600586 0-.2945786.2945786-.2912788.7697964 0 1.0600586C37.052536 19.6846142 37.5263748 19.6726017 37.8134804 19.385498zM41.4633827 19.385498c.2973366-.2963028.2890244-.7710342 0-1.0600586-.2700996-.2700977-.7469063-.3109779-1.0600586 0-.3221893.3244419-.2656021.7944603 0 1.0600586C40.7111473 19.6933231 41.1902199 19.6605701 41.4633827 19.385498z"></path>
  </g>
</svg>
