<svg xmlns="http://www.w3.org/2000/svg" xml:space="preserve" id="kitchen-sink" x="0" y="0" style="enable-background:new 0 0 55 55" version="1.1" viewBox="0 0 55 55">
  <g>
    <path d="M5.1347656,26.6296387h1.0600586v18.7797852c0,0.4140625,0.3359375,0.75,0.75,0.75h41.1098633
		c0.4140625,0,0.75-0.3359375,0.75-0.75V26.6296387h1.0600586c0.9018555,0,1.6352539-0.7333984,1.6352539-1.6352539v-1.8916016
		c0-0.9018555-0.7333984-1.6352539-1.6352539-1.6352539h-5.0986328c-0.0256348-0.0528564-0.0603027-0.0996704-0.0974121-0.1446533
		c1.0874023-0.8671265,1.855957-2.124939,2.0437012-3.5882568c0.1003799-0.7723141-0.5049133-1.4604492-1.2836914-1.4604492
		h-8.3779297c-0.7781677,0-1.3841972,0.6876965-1.2836914,1.4599609c0.1931152,1.5029907,1,2.7871094,2.1347656,3.6551514
		c-0.0175781,0.0264282-0.0388184,0.0496826-0.0527344,0.0782471H32.25v-2.74646
		c1.4414063-0.3410034,2.5200195-1.6308594,2.5200195-3.1749268v-2.9301758c0-0.4140625-0.3359375-0.75-0.75-0.75h-5.0400391
		c-0.4140625,0-0.75,0.3359375-0.75,0.75v2.9301758c0,1.5440674,1.0786133,2.8339233,2.5200195,3.1749268v2.74646H19.6049805
		v-1.3964844h0.5175781c0.4140625,0,0.75-0.3359375,0.75-0.75s-0.3359375-0.75-0.75-0.75h-2.5351563
		c-0.4140625,0-0.75,0.3359375-0.75,0.75s0.3359375,0.75,0.75,0.75h0.5175781v1.3964844h-5.6098633v-9.5371094
		c0-0.8764648,0.7133789-1.5898438,1.5898438-1.5898438s1.5898438,0.7133789,1.5898438,1.5898438v0.5400391
		c0,0.4140625,0.3359375,0.75,0.75,0.75s0.75-0.3359375,0.75-0.75v-0.5400391c0-1.7036133-1.3862305-3.0898438-3.0898438-3.0898438
		s-3.0898438,1.3862305-3.0898438,3.0898438v9.5371094H5.1347656C4.2333984,21.4675293,3.5,22.2009277,3.5,23.1027832v1.8916016
		C3.5,25.8962402,4.2333984,26.6296387,5.1347656,26.6296387z M29.7299805,15.5461426v-2.1801758h3.5400391v2.1801758
		c0,0.9760742-0.7939453,1.7700195-1.7700195,1.7700195S29.7299805,16.5222168,29.7299805,15.5461426z M7.6948242,26.6296387
		H19.199707v18.0297852H7.6948242V26.6296387z M33.8232422,39.994873H20.699707v-3.6000977h13.1235352V39.994873z
		 M20.699707,41.494873h13.1235352v3.1645508H20.699707V41.494873z M33.8232422,34.8947754H20.699707v-8.2651367h13.1235352
		V34.8947754z M47.3046875,44.6594238H35.3232422c0-0.1451836,0-18.1769848,0-18.0297852h11.9814453V44.6594238z
		 M37.2915039,17.7741699h7.8969727c-0.3535156,1.8789063-2.0117188,3.2680664-3.9487305,3.2680664
		C39.3032227,21.0422363,37.6455078,19.6535645,37.2915039,17.7741699z M5,23.1027832
		c0-0.074707,0.0605469-0.1352539,0.1347656-0.1352539c0.100318,0.0000744,26.7707939,0.0273533,44.7299805,0
		C49.9394531,22.9675293,50,23.0280762,50,23.1027832v1.8916016c0,0.074707-0.0605469,0.1352539-0.1352539,0.1352539
		c-0.101078-0.0000019-47.762413-0.0005016-44.7299805,0C5.0605469,25.1296387,5,25.0690918,5,24.9943848V23.1027832z"></path>
    <path d="M25.8676758 33.1364746h2.7880859c.4140625 0 .75-.3359375.75-.75s-.3359375-.75-.75-.75h-2.7880859c-.4140625 0-.75.3359375-.75.75S25.4536133 33.1364746 25.8676758 33.1364746zM16.6987305 31.114502c-.4140625 0-.75.3359375-.75.75v3.0146484c0 .4140625.3359375.75.75.75s.75-.3359375.75-.75V31.864502C17.4487305 31.4504395 17.112793 31.114502 16.6987305 31.114502zM37.7167969 35.6291504c.4140625 0 .75-.3359375.75-.75V31.864502c0-.4140625-.3359375-.75-.75-.75s-.75.3359375-.75.75v3.0146484C36.9667969 35.2932129 37.3027344 35.6291504 37.7167969 35.6291504z"></path>
  </g>
</svg>
