<svg xmlns="http://www.w3.org/2000/svg" xml:space="preserve" id="study-desk" x="0" y="0" style="enable-background:new 0 0 55 55" version="1.1" viewBox="0 0 55 55">
  <g>
    <path d="M49.746582,25.1173153h-0.9316406v-0.8134766c0-1.5166016-1.2338867-2.75-2.75-2.75h-2.4343262l3.0061035-6.0309448
		c1.3496094-0.0604858,2.4316406-1.1688232,2.4316406-2.5325317c0-1.4033203-1.1416016-2.5449219-2.5444336-2.5449219
		c-0.2810059,0-0.5466309,0.0567627-0.7995605,0.1412964l-6.2043457-6.1715703c0-0.0001221-0.0002441-0.0001221-0.0004883-0.0002441
		c0-0.0002441-0.0002441-0.0004883-0.0004883-0.0007324c-1.1778831-1.1788898-3.0972061-1.1889663-4.2851563,0l-1.0529785,1.0522461
		c-2.1293945-0.788208-4.5720215-0.6005859-6.5583496,0.6918945c-0.9939079,0.645988-1.1311913,2.0782475-0.2729492,2.9375005
		l1.1625977,1.1626587c-0.9556999,1.4318171-0.8206692,3.3976145,0.4716797,4.6908569
		c1.2681446,1.267292,3.2364845,1.4341106,4.6894531,0.4702759l1.1635742,1.1635132
		c0.8532219,0.8543606,2.2894554,0.7251701,2.9375-0.2724609c1.2939453-1.9874878,1.4807129-4.4296875,0.6921387-6.5588379
		l1.0524902-1.0524902c0.3903809-0.3903809,0.6499023-0.8715825,0.7827148-1.3920293l4.1899414,4.1677861
		c-0.3173828,0.4245605-0.512207,0.9455566-0.512207,1.5152588c0,0.8984375,0.4714355,1.6854858,1.1772461,2.1382446
		l-3.2028809,6.4252319h-1.2175293v-0.609375c0-0.4140625-0.3359375-0.75-0.75-0.75s-0.75,0.3359375-0.75,0.75v0.609375h-0.4643555
		c-1.5161133,0-2.75,1.2333984-2.75,2.75v0.8134766h-2.9023438v-2.9199219c0-0.4140625-0.3359375-0.75-0.75-0.75h-1.2973633
		v-2.9189453c0-0.4140625-0.3359375-0.75-0.75-0.75H19.3466797c-0.4140625,0-0.75,0.3359375-0.75,0.75v3.6689453
		c0,0.4140625,0.3359375,0.75,0.75,0.75h1.2978516v2.1699219h-4.9284668
		c0.2944336-0.4776001,0.4729004-1.0344238,0.4729004-1.6357422v-6.3496094c0-0.4140625-0.3359375-0.75-0.75-0.75h-7.1875
		c-0.4140625,0-0.75,0.3359375-0.75,0.75v6.3496094c0,0.6013184,0.1784668,1.1581421,0.4729004,1.6357422H5.253418
		c-0.9648438,0-1.75,0.7851563-1.75,1.75v3.0585938c0,0.9648438,0.7851563,1.75,1.75,1.75h2.3295898v18.0478497
		c0,0.9648438,0.762207,1.75,1.6987305,1.75h1.6323242c0.9150391,0,1.6601563-0.7373047,1.6972656-1.6777344l0.7490234-18.1201153
		h28.2792969l0.7485352,18.1191387c0.0375977,0.9414063,0.7832031,1.6787109,1.6972656,1.6787109h1.6323242
		c0.9365234,0,1.6987305-0.7851563,1.6987305-1.75V31.675909h2.3300781c0.9648438,0,1.75-0.7851563,1.75-1.75v-3.0585938
		C51.496582,25.9024715,50.7114258,25.1173153,49.746582,25.1173153z M47.5683594,12.9903622
		c0,0.5751953-0.46875,1.0439453-1.0444336,1.0439453s-1.0444336-0.46875-1.0444336-1.0439453
		c0-0.5761719,0.46875-1.0449219,1.0444336-1.0449219S47.5683594,12.4141903,47.5683594,12.9903622z M30.0444336,13.8887997
		c-0.6339569-0.6339569-0.8672276-1.6154118-0.4289551-2.5270996l2.9541016,2.9540405
		C31.7436523,14.7083187,30.7272949,14.571661,30.0444336,13.8887997z M36.5170898,15.4923153
		c-0.1278,0.1972752-0.437233,0.2126675-0.6196289,0.0302734L28.4106445,8.035284
		c-0.1757641-0.1757641-0.1725597-0.4871764,0.0297852-0.6191411c2.2881603-1.4892669,5.3626671-1.1818938,7.3110352,0.7656255
		C37.638073,10.0686159,38.0437164,13.1479273,36.5170898,15.4923153z M38.4584961,7.6387992L37.765625,8.3317318
		c-0.2758789-0.4281621-0.5830078-0.8398442-0.9536133-1.2105107c-0.3706055-0.3707886-0.7822266-0.6779785-1.2104492-0.9537354
		l0.6933594-0.692749c0.5216179-0.5225005,1.477356-0.6838999,2.1635742,0
		C39.0496979,6.0659385,39.0633888,7.0339079,38.4584961,7.6387992z M37.5219727,24.3038387c0-0.6894531,0.5605469-1.25,1.25-1.25
		h7.2929688c0.6894531,0,1.25,0.5605469,1.25,1.25v0.5263672h-9.7929688V24.3038387z M20.0966797,19.2784481h9.4755859v2.1689453
		c-3.0762558,0-9.7313328,0-9.4755859,0V19.2784481z M22.1445313,22.9473934c3.0762558,0,9.7308445,0,9.4750977,0v2.1699219
		h-9.4750977V22.9473934z M9.0014648,23.4815731v-5.5996094h5.6875v5.5996094c0,0.9023438-0.7338867,1.6357422-1.6357422,1.6357422
		H10.637207C9.7353516,25.1173153,9.0014648,24.3839169,9.0014648,23.4815731z M11.1123047,49.7354774
		c-0.0048828,0.1318359-0.0942383,0.2382813-0.1982422,0.2382813H9.2817383c-0.1079102,0-0.1987305-0.1142578-0.1987305-0.25
		V31.675909h2.7758789L11.1123047,49.7354774z M45.9165039,49.7237587c0,0.1357422-0.0908203,0.25-0.1987305,0.25h-1.6323242
		c-0.1040039,0-0.1928711-0.1074219-0.1982422-0.2402344L43.1411133,31.675909h2.7753906V49.7237587z M49.996582,29.925909
		c0,0.1376953-0.1123047,0.25-0.25,0.25c-4.9309502,0-46.4424286,0-44.4931641,0c-0.1376953,0-0.25-0.1123047-0.25-0.25v-3.0585938
		c0-0.1376953,0.1123047-0.25,0.25-0.25c16.4202156,0,28.9113655,0,44.4931641,0c0.1376953,0,0.25,0.1123047,0.25,0.25V29.925909z"></path>
  </g>
</svg>
