<svg xmlns="http://www.w3.org/2000/svg" xml:space="preserve" id="seat" x="0" y="0" style="enable-background:new 0 0 55 55" version="1.1" viewBox="0 0 55 55">
  <g>
    <path d="M48.434082,19.3769531h-2.8178711V8.1435547c0-1.6923828-1.3725586-3.0693359-3.0600586-3.0693359H12.7260742
		c-1.6928711,0-3.0698242,1.3769531-3.0698242,3.0693359v11.2333984H6.565918c-1.6904297,0-3.065918,1.375-3.065918,3.0654297
		v20.9814453c0,1.6904297,1.3754883,3.0654297,3.065918,3.0654297h2.8598633v1.6865234c0,0.9648438,0.7851563,1.75,1.75,1.75
		h2.6298828c0.9648438,0,1.75-0.7851563,1.75-1.75v-1.6865234h23.8886719v1.6865234c0,0.9648438,0.7851563,1.75,1.75,1.75h2.6298828
		c0.9648438,0,1.75-0.7851563,1.75-1.75v-1.6865234h2.8598633c1.6904297,0,3.065918-1.375,3.065918-3.0654297V22.4423828
		C51.5,20.7519531,50.1245117,19.3769531,48.434082,19.3769531z M11.15625,8.1435547
		c0-0.8652344,0.7041016-1.5693359,1.5698242-1.5693359h29.8300781c0.8603516,0,1.5600586,0.7041016,1.5600586,1.5693359v11.2333984
		h-0.3134766c-1.6904297,0-3.065918,1.375-3.065918,3.0654297v5.4348145
		c-0.4584961-0.2753296-0.9882813-0.4436035-1.5605469-0.4436035h-2.875c-0.0158691-0.2505493-0.0449219-0.5006714-0.0449219-0.75
		v-8.1601563c0-2.1898766,0.5697708-3.650116,0.6513672-4.0058594c0.2618523-0.9244347-0.6532364-1.72509-1.5083008-1.3847656
		c-1.4331055,0.5449219-2.9213867,0.8212891-4.4233398,0.8212891h-6.659668c-1.5117188,0-2.9995117-0.2763672-4.4189453-0.8193359
		c-0.874958-0.3412447-1.7837429,0.4554567-1.5214844,1.3876953c0.0598392,0.2652235,0.6303711,1.774395,0.6303711,3.9316406
		v8.2294922c0,0.2472534-0.0292969,0.4995117-0.0454102,0.75h-3.1347656c-0.5732422,0-1.1040039,0.1687622-1.5629883,0.4449463
		v-5.4361572c0-1.6904297-1.3754883-3.0654297-3.065918-3.0654297H11.15625V8.1435547z M34.7563477,18.5234375v8.1601563
		c0,0.5283203,0.0322266,1.0634766,0.0947266,1.5839844c0.0810547,0.7216797,0.2207031,1.4375,0.4145508,2.1289063
		c-1.3950195-0.4599609-2.8481445-0.6923828-4.3295898-0.6923828h-6.6098633c-1.472168,0-2.9165039,0.2294922-4.3310547,0.6982422
		c0.2207355-0.7847118,0.3340111-1.4274521,0.4206543-2.2155762c0-0.0010986,0.0007324-0.0020752,0.0007324-0.0031738
		c0-0.0006104-0.0004883-0.0010986-0.0004883-0.001709c0.0566406-0.4993286,0.090332-1.0022583,0.090332-1.498291v-8.2294922
		c0-1.2373047-0.1674805-2.4765625-0.4990234-3.6894531c1.3955078,0.4580078,2.8417969,0.6894531,4.309082,0.6894531h6.659668
		c1.453125,0,2.8935547-0.2304688,4.2993164-0.6875C34.9311523,15.9775391,34.7563477,17.2412109,34.7563477,18.5234375z
		 M19.9238281,32.0136719c1.40625-0.5371094,2.8876953-0.8095703,4.4023438-0.8095703h6.6098633
		c1.5146484,0,2.9960938,0.2724609,4.3251953,0.7753906c0.8732872,0.4633751,1.9144096-0.3483906,1.6352539-1.3457031
		c-0.0819817-0.3037605-0.2604446-0.8037663-0.425293-1.7001953h2.7050781c0.8603516,0,1.5600586,0.7041016,1.5600586,1.5703125
		v5.2226563H14.2661133v-5.2226563c0-0.8662109,0.699707-1.5703125,1.5600586-1.5703125h2.965332
		c-0.1666565,0.9045696-0.3234119,1.3234825-0.4267578,1.7070313
		C18.1099663,31.5416775,18.9802608,32.3927574,19.9238281,32.0136719z M14.0556641,48.1757813
		c0,0.1376953-0.1123047,0.25-0.25,0.25h-2.6298828c-0.1376953,0-0.25-0.1123047-0.25-0.25v-1.6865234h3.1298828V48.1757813z
		 M44.0742188,48.1757813c0,0.1376953-0.1123047,0.25-0.25,0.25h-2.6298828c-0.1376953,0-0.25-0.1123047-0.25-0.25v-1.6865234
		h3.1298828V48.1757813z M50,43.4238281c0,0.8632813-0.7026367,1.5654297-1.565918,1.5654297H6.565918
		C5.7026367,44.9892578,5,44.2871094,5,43.4238281V22.4423828c0-0.8632813,0.7026367-1.5654297,1.565918-1.5654297h4.6313477
		c0.8632813,0,1.565918,0.7021484,1.565918,1.5654297v14.0341797c0,0.4140625,0.3359375,0.75,0.75,0.75h27.9736328
		c0.4140625,0,0.75-0.3359375,0.75-0.75V22.4423828c0-0.8632813,0.7026367-1.5654297,1.565918-1.5654297h4.6313477
		c0.8632813,0,1.565918,0.7021484,1.565918,1.5654297V43.4238281z"></path>
    <path d="M23.5263672 18.15625c-.3068008.3025398-.2759018.7836685 0 1.0595703.2925301.2925301.7663021.2932682 1.0595703 0 .2906837-.2906837.291666-.7892456 0-1.0595703C24.3293056 17.8996181 23.8572178 17.8230858 23.5263672 18.15625zM30.6860352 18.15625c-.3016796.2995701-.2793102.778307 0 1.0595703.2934971.2924747.7657661.2932682 1.0600586 0 .2989845-.2989845.2847176-.7956848 0-1.0595703C31.4890308 17.8991871 31.0188446 17.8234406 30.6860352 18.15625zM24.5859375 25.9560547c-.3094597-.3116226-.7699661-.2916298-1.0595703 0-.3026009.2983971-.2799816.7834778 0 1.0595703.2922668.2943115.7674866.2941265 1.0595703 0C24.8623009 26.7431011 24.890955 26.2568359 24.5859375 25.9560547zM31.7460938 25.9560547c-.2665539-.2684174-.7279072-.3321514-1.0600586 0-.3040752.3019485-.2759247.7855759 0 1.0595703.292675.2936954.766367.294714 1.0600586 0C32.0222931 26.7432632 32.0520592 26.2577705 31.7460938 25.9560547z"></path>
  </g>
</svg>
