<svg width="20" height="20" viewBox="0 0 20 20" fill="none" xmlns="http://www.w3.org/2000/svg">
<path d="M11.1667 14.5167H9.07501C7.70834 14.5167 6.60001 13.3667 6.60001 11.9501C6.60001 11.6084 6.88334 11.3251 7.22501 11.3251C7.56668 11.3251 7.85001 11.6084 7.85001 11.9501C7.85001 12.6751 8.40001 13.2667 9.07501 13.2667H11.1667C11.7083 13.2667 12.1583 12.7834 12.1583 12.2001C12.1583 11.4751 11.9 11.3334 11.475 11.1834L8.11667 10.0001C7.46667 9.77506 6.59167 9.29173 6.59167 7.80006C6.59167 6.51673 7.60001 5.4834 8.83334 5.4834H10.925C12.2917 5.4834 13.4 6.6334 13.4 8.05006C13.4 8.39173 13.1167 8.67506 12.775 8.67506C12.4333 8.67506 12.15 8.39173 12.15 8.05006C12.15 7.32506 11.6 6.7334 10.925 6.7334H8.83334C8.29168 6.7334 7.84167 7.21673 7.84167 7.80006C7.84167 8.52506 8.10001 8.66673 8.52501 8.81673L11.8833 10.0001C12.5333 10.2251 13.4083 10.7084 13.4083 12.2001C13.4 13.4751 12.4 14.5167 11.1667 14.5167Z" fill="#0C5137"/>
<path d="M10 15.625C9.65833 15.625 9.375 15.3417 9.375 15V5C9.375 4.65833 9.65833 4.375 10 4.375C10.3417 4.375 10.625 4.65833 10.625 5V15C10.625 15.3417 10.3417 15.625 10 15.625Z" fill="#0C5137"/>
<path d="M12.5 18.9582H7.49996C2.97496 18.9582 1.04163 17.0248 1.04163 12.4998V7.49984C1.04163 2.97484 2.97496 1.0415 7.49996 1.0415H12.5C17.025 1.0415 18.9583 2.97484 18.9583 7.49984V12.4998C18.9583 17.0248 17.025 18.9582 12.5 18.9582ZM7.49996 2.2915C3.65829 2.2915 2.29163 3.65817 2.29163 7.49984V12.4998C2.29163 16.3415 3.65829 17.7082 7.49996 17.7082H12.5C16.3416 17.7082 17.7083 16.3415 17.7083 12.4998V7.49984C17.7083 3.65817 16.3416 2.2915 12.5 2.2915H7.49996Z" fill="#0C5137"/>
</svg>
