<svg width="24" height="24" viewBox="0 0 24 24" fill="none" xmlns="http://www.w3.org/2000/svg">
<path d="M5.0459 21.835C5.12919 21.859 5.2135 21.8805 5.29883 21.8994C5.21349 21.8805 5.12921 21.859 5.0459 21.835ZM2.25 19.2139C2.64964 20.3192 3.49808 21.2124 4.5752 21.6689C3.49833 21.2129 2.64961 20.3207 2.25 19.2139ZM2.00586 17.9961C2.0258 18.3898 2.10069 18.7693 2.22168 19.1279C2.10094 18.7695 2.02575 18.3901 2.00586 17.9961ZM2.02148 10.0273C2.02505 9.99703 2.02777 9.96631 2.03223 9.93555C2.02784 9.96615 2.02502 9.99685 2.02148 10.0273ZM2.18359 9.28809C2.18913 9.27035 2.19344 9.25216 2.19922 9.23438C2.19343 9.2521 2.18918 9.27031 2.18359 9.28809ZM2.24219 9.11328C2.25596 9.07438 2.26929 9.03508 2.28418 8.99609C2.26934 9.0348 2.25611 9.07415 2.24219 9.11328ZM2.5918 8.33105C2.62491 8.2708 2.66038 8.21239 2.69531 8.1543C2.66009 8.21307 2.6245 8.27145 2.5918 8.33105ZM2.71191 8.12402C2.733 8.08948 2.75567 8.05615 2.77734 8.02246C2.75561 8.0564 2.73282 8.08965 2.71191 8.12402ZM10.9951 2.06641C12.0558 1.92746 13.1809 2.14523 14.0186 2.7334L14.0195 2.73438L20.1992 7.06445L20.2012 7.06543C20.241 7.09319 20.2798 7.12352 20.3193 7.1543C20.2792 7.12346 20.2394 7.09275 20.1982 7.06445L14.0195 2.73535C13.2932 2.22613 12.3734 2.00742 11.5 2.02637C11.3323 2.03001 11.1637 2.04479 10.9951 2.06641ZM2 10.3701C2 10.2976 2.00269 10.2228 2.00879 10.1465C2.00293 10.2216 2 10.2964 2 10.3701Z" fill="#1B1D1C" stroke="#1B1D1C" stroke-width="1.5"/>
<mask id="path-2-inside-1_2225_2932" fill="white">
<path d="M12 18.75C11.59 18.75 11.25 18.41 11.25 18V15C11.25 14.59 11.59 14.25 12 14.25C12.41 14.25 12.75 14.59 12.75 15V18C12.75 18.41 12.41 18.75 12 18.75Z"/>
</mask>
<path d="M12 18.75C11.59 18.75 11.25 18.41 11.25 18V15C11.25 14.59 11.59 14.25 12 14.25C12.41 14.25 12.75 14.59 12.75 15V18C12.75 18.41 12.41 18.75 12 18.75Z" fill="#1B1D1C"/>
<path d="M12 17.25C12.4184 17.25 12.75 17.5816 12.75 18H9.75C9.75 19.2384 10.7616 20.25 12 20.25V17.25ZM12.75 18V15H9.75V18H12.75ZM12.75 15C12.75 15.4184 12.4184 15.75 12 15.75V12.75C10.7616 12.75 9.75 13.7616 9.75 15H12.75ZM12 15.75C11.5816 15.75 11.25 15.4184 11.25 15H14.25C14.25 13.7616 13.2384 12.75 12 12.75V15.75ZM11.25 15V18H14.25V15H11.25ZM11.25 18C11.25 17.5816 11.5816 17.25 12 17.25V20.25C13.2384 20.25 14.25 19.2384 14.25 18H11.25Z" fill="#1B1D1C" mask="url(#path-2-inside-1_2225_2932)"/>
</svg>
