<svg width="20" height="20" viewBox="0 0 20 20" fill="none" xmlns="http://www.w3.org/2000/svg">
<path d="M14.9999 6.59168C14.9749 6.59168 14.9583 6.59168 14.9333 6.59168H14.8916C13.3166 6.54168 12.1416 5.32501 12.1416 3.82501C12.1416 2.29168 13.3916 1.05001 14.9166 1.05001C16.4416 1.05001 17.6916 2.30001 17.6916 3.82501C17.6833 5.33335 16.5083 6.55001 15.0083 6.60001C15.0083 6.59168 15.0083 6.59168 14.9999 6.59168ZM14.9166 2.29168C14.0749 2.29168 13.3916 2.97502 13.3916 3.81668C13.3916 4.64168 14.0333 5.30835 14.8583 5.34168C14.8666 5.33335 14.9333 5.33335 15.0083 5.34168C15.8166 5.30002 16.4416 4.63335 16.4499 3.81668C16.4499 2.97502 15.7666 2.29168 14.9166 2.29168Z" fill="#292D32"/>
<path d="M15.0083 12.7334C14.6833 12.7334 14.3583 12.7083 14.0333 12.65C13.6916 12.5917 13.4666 12.2667 13.5249 11.925C13.5833 11.5834 13.9083 11.3584 14.2499 11.4167C15.2749 11.5917 16.3583 11.4 17.0833 10.9167C17.4749 10.6584 17.6833 10.3333 17.6833 10.0083C17.6833 9.68335 17.4666 9.36668 17.0833 9.10835C16.3583 8.62501 15.2583 8.43335 14.2249 8.61668C13.8833 8.68335 13.5583 8.45002 13.4999 8.10835C13.4416 7.76668 13.6666 7.44169 14.0083 7.38335C15.3666 7.14169 16.7749 7.40001 17.7749 8.06668C18.5083 8.55835 18.9333 9.25835 18.9333 10.0083C18.9333 10.75 18.5166 11.4584 17.7749 11.9584C17.0166 12.4584 16.0333 12.7334 15.0083 12.7334Z" fill="#292D32"/>
<path d="M4.9749 6.59167C4.96657 6.59167 4.95824 6.59167 4.95824 6.59167C3.45824 6.54167 2.28324 5.32499 2.2749 3.82499C2.2749 2.29166 3.5249 1.04166 5.0499 1.04166C6.5749 1.04166 7.8249 2.29167 7.8249 3.81667C7.8249 5.325 6.6499 6.54167 5.1499 6.59167L4.9749 5.96667L5.03324 6.59167C5.01657 6.59167 4.99157 6.59167 4.9749 6.59167ZM5.05824 5.34167C5.10824 5.34167 5.1499 5.34166 5.1999 5.35C5.94157 5.31666 6.59157 4.64999 6.59157 3.82499C6.59157 2.98333 5.90824 2.29999 5.06657 2.29999C4.2249 2.29999 3.54157 2.98333 3.54157 3.82499C3.54157 4.64166 4.1749 5.3 4.98324 5.35C4.99157 5.34166 5.0249 5.34167 5.05824 5.34167Z" fill="#292D32"/>
<path d="M4.96675 12.7334C3.94175 12.7334 2.95841 12.4584 2.20008 11.9584C1.46675 11.4667 1.04175 10.7583 1.04175 10.0083C1.04175 9.26668 1.46675 8.55835 2.20008 8.06668C3.20008 7.40001 4.60841 7.14169 5.96675 7.38335C6.30841 7.44169 6.53342 7.76668 6.47508 8.10835C6.41675 8.45002 6.09175 8.68335 5.75008 8.61668C4.71675 8.43335 3.62508 8.62501 2.89175 9.10835C2.50008 9.36668 2.29175 9.68335 2.29175 10.0083C2.29175 10.3333 2.50842 10.6584 2.89175 10.9167C3.61675 11.4 4.70008 11.5917 5.72508 11.4167C6.06675 11.3584 6.39175 11.5917 6.45008 11.925C6.50842 12.2667 6.28342 12.5917 5.94175 12.65C5.61675 12.7083 5.29175 12.7334 4.96675 12.7334Z" fill="#292D32"/>
<path d="M9.99994 12.8167C9.97494 12.8167 9.95827 12.8167 9.93327 12.8167H9.8916C8.3166 12.7667 7.1416 11.55 7.1416 10.05C7.1416 8.51665 8.3916 7.27499 9.9166 7.27499C11.4416 7.27499 12.6916 8.52499 12.6916 10.05C12.6833 11.5583 11.5083 12.775 10.0083 12.825C10.0083 12.8167 10.0083 12.8167 9.99994 12.8167ZM9.9166 8.51666C9.07494 8.51666 8.3916 9.19999 8.3916 10.0417C8.3916 10.8667 9.03327 11.5333 9.85827 11.5667C9.8666 11.5583 9.93327 11.5583 10.0083 11.5667C10.8166 11.525 11.4416 10.8583 11.4499 10.0417C11.4499 9.20833 10.7666 8.51666 9.9166 8.51666Z" fill="#292D32"/>
<path d="M9.99974 18.9666C8.99974 18.9666 7.99974 18.7083 7.22474 18.1833C6.49141 17.6917 6.06641 16.9916 6.06641 16.2416C6.06641 15.5 6.48307 14.7833 7.22474 14.2916C8.78307 13.2583 11.2247 13.2583 12.7747 14.2916C13.5081 14.7833 13.9331 15.4833 13.9331 16.2333C13.9331 16.975 13.5164 17.6917 12.7747 18.1833C11.9997 18.7 10.9997 18.9666 9.99974 18.9666ZM7.91641 15.3416C7.52474 15.6 7.31641 15.925 7.31641 16.25C7.31641 16.575 7.53307 16.8916 7.91641 17.15C9.04141 17.9083 10.9497 17.9083 12.0747 17.15C12.4664 16.8916 12.6747 16.5666 12.6747 16.2416C12.6747 15.9166 12.4581 15.6 12.0747 15.3416C10.9581 14.5833 9.04974 14.5916 7.91641 15.3416Z" fill="#292D32"/>
</svg>
